<mxfile host="app.diagrams.net" modified="2024-04-23T18:29:37.981Z" agent="Mozilla/5.0 (X11; Linux x86_64) AppleWebKit/537.36 (KHTML, like Gecko) Chrome/123.0.0.0 Safari/537.36" etag="okYDMYLgPrri4C0USI36" version="24.0.7" type="device">
  <diagram name="Página-1" id="KjTtuctHwxDyZRn3l2mg">
    <mxGraphModel dx="1493" dy="1857" grid="1" gridSize="10" guides="1" tooltips="1" connect="1" arrows="1" fold="1" page="1" pageScale="1" pageWidth="827" pageHeight="1169" math="0" shadow="0">
      <root>
        <mxCell id="0" />
        <mxCell id="1" parent="0" />
        <mxCell id="IU_M7-wI5nSeHY1QrZLq-77" value="" style="group" parent="1" vertex="1" connectable="0">
          <mxGeometry x="1610" y="986" width="414.5" height="255" as="geometry" />
        </mxCell>
        <mxCell id="IU_M7-wI5nSeHY1QrZLq-61" value="" style="rounded=0;whiteSpace=wrap;html=1;" parent="IU_M7-wI5nSeHY1QrZLq-77" vertex="1">
          <mxGeometry width="334.5" height="255" as="geometry" />
        </mxCell>
        <mxCell id="IU_M7-wI5nSeHY1QrZLq-64" value="Cliente de mídia" style="text;strokeColor=none;align=center;fillColor=none;html=1;verticalAlign=middle;whiteSpace=wrap;rounded=0;" parent="IU_M7-wI5nSeHY1QrZLq-77" vertex="1">
          <mxGeometry x="254.5" y="229" width="60" height="5" as="geometry" />
        </mxCell>
        <mxCell id="IU_M7-wI5nSeHY1QrZLq-66" value="Buffer" style="rounded=0;whiteSpace=wrap;html=1;" parent="IU_M7-wI5nSeHY1QrZLq-77" vertex="1">
          <mxGeometry x="194.5" y="22" width="120" height="60" as="geometry" />
        </mxCell>
        <mxCell id="IU_M7-wI5nSeHY1QrZLq-71" style="edgeStyle=orthogonalEdgeStyle;rounded=0;orthogonalLoop=1;jettySize=auto;html=1;" parent="IU_M7-wI5nSeHY1QrZLq-77" source="IU_M7-wI5nSeHY1QrZLq-67" target="IU_M7-wI5nSeHY1QrZLq-66" edge="1">
          <mxGeometry relative="1" as="geometry" />
        </mxCell>
        <mxCell id="IU_M7-wI5nSeHY1QrZLq-67" value="Interface de Rede" style="rounded=0;whiteSpace=wrap;html=1;" parent="IU_M7-wI5nSeHY1QrZLq-77" vertex="1">
          <mxGeometry x="24.5" y="22" width="120" height="60" as="geometry" />
        </mxCell>
        <mxCell id="IU_M7-wI5nSeHY1QrZLq-74" style="edgeStyle=orthogonalEdgeStyle;rounded=0;orthogonalLoop=1;jettySize=auto;html=1;" parent="IU_M7-wI5nSeHY1QrZLq-77" source="IU_M7-wI5nSeHY1QrZLq-72" edge="1">
          <mxGeometry relative="1" as="geometry">
            <mxPoint x="414.5" y="159" as="targetPoint" />
          </mxGeometry>
        </mxCell>
        <mxCell id="IU_M7-wI5nSeHY1QrZLq-75" value="Display&amp;nbsp;" style="edgeLabel;html=1;align=center;verticalAlign=middle;resizable=0;points=[];" parent="IU_M7-wI5nSeHY1QrZLq-74" vertex="1" connectable="0">
          <mxGeometry x="0.8704" relative="1" as="geometry">
            <mxPoint x="-8" y="-17" as="offset" />
          </mxGeometry>
        </mxCell>
        <mxCell id="IU_M7-wI5nSeHY1QrZLq-72" value="Decodificador" style="rounded=0;whiteSpace=wrap;html=1;" parent="IU_M7-wI5nSeHY1QrZLq-77" vertex="1">
          <mxGeometry x="194.5" y="129" width="120" height="60" as="geometry" />
        </mxCell>
        <mxCell id="IU_M7-wI5nSeHY1QrZLq-73" style="edgeStyle=orthogonalEdgeStyle;rounded=0;orthogonalLoop=1;jettySize=auto;html=1;" parent="IU_M7-wI5nSeHY1QrZLq-77" source="IU_M7-wI5nSeHY1QrZLq-66" target="IU_M7-wI5nSeHY1QrZLq-72" edge="1">
          <mxGeometry relative="1" as="geometry" />
        </mxCell>
        <mxCell id="1v8-vr0Qcsb3jSITrx1u-97" value="&lt;span style=&quot;color: rgb(0, 0, 0); font-family: Helvetica; font-size: 8px; font-style: normal; font-variant-ligatures: normal; font-variant-caps: normal; font-weight: 400; letter-spacing: normal; orphans: 2; text-align: center; text-indent: 0px; text-transform: none; widows: 2; word-spacing: 0px; -webkit-text-stroke-width: 0px; background-color: rgb(251, 251, 251); text-decoration-thickness: initial; text-decoration-style: initial; text-decoration-color: initial; float: none; display: inline !important;&quot;&gt;ReadStream&lt;br&gt;&lt;br&gt;&lt;/span&gt;" style="text;whiteSpace=wrap;html=1;" parent="1" vertex="1">
          <mxGeometry x="399" y="176.25" width="55" height="22.5" as="geometry" />
        </mxCell>
        <mxCell id="1v8-vr0Qcsb3jSITrx1u-98" value="" style="group" parent="1" vertex="1" connectable="0">
          <mxGeometry x="180" y="910" width="266" height="325" as="geometry" />
        </mxCell>
        <mxCell id="VNFblEN0b3wX1P5wx99s-2" value="&amp;lt;&amp;lt;application&amp;gt;&amp;gt;&lt;br&gt;&lt;b&gt;MediaServer&lt;/b&gt;" style="html=1;dropTarget=0;whiteSpace=wrap;" parent="1v8-vr0Qcsb3jSITrx1u-98" vertex="1">
          <mxGeometry x="-29" y="105" width="180" height="100" as="geometry" />
        </mxCell>
        <mxCell id="VNFblEN0b3wX1P5wx99s-3" value="" style="shape=module;jettyWidth=8;jettyHeight=4;" parent="VNFblEN0b3wX1P5wx99s-2" vertex="1">
          <mxGeometry x="1" width="20" height="20" relative="1" as="geometry">
            <mxPoint x="-27" y="7" as="offset" />
          </mxGeometry>
        </mxCell>
        <mxCell id="1v8-vr0Qcsb3jSITrx1u-139" value="&amp;lt;&amp;lt;application&amp;gt;&amp;gt;&lt;br&gt;&lt;b&gt;MediaServer&lt;/b&gt;" style="html=1;dropTarget=0;whiteSpace=wrap;" parent="1v8-vr0Qcsb3jSITrx1u-98" vertex="1">
          <mxGeometry x="-29" y="-15" width="180" height="100" as="geometry" />
        </mxCell>
        <mxCell id="1v8-vr0Qcsb3jSITrx1u-140" value="" style="shape=module;jettyWidth=8;jettyHeight=4;" parent="1v8-vr0Qcsb3jSITrx1u-139" vertex="1">
          <mxGeometry x="1" width="20" height="20" relative="1" as="geometry">
            <mxPoint x="-27" y="7" as="offset" />
          </mxGeometry>
        </mxCell>
        <mxCell id="1v8-vr0Qcsb3jSITrx1u-141" value="" style="rounded=1;whiteSpace=wrap;html=1;arcSize=0;" parent="1v8-vr0Qcsb3jSITrx1u-98" vertex="1">
          <mxGeometry x="145" y="150" width="10" height="10" as="geometry" />
        </mxCell>
        <mxCell id="1v8-vr0Qcsb3jSITrx1u-142" value="" style="group" parent="1v8-vr0Qcsb3jSITrx1u-98" vertex="1" connectable="0">
          <mxGeometry x="-98" y="149" width="104" height="61" as="geometry" />
        </mxCell>
        <mxCell id="1v8-vr0Qcsb3jSITrx1u-143" value="" style="ellipse;whiteSpace=wrap;html=1;align=center;aspect=fixed;fillColor=none;strokeColor=none;resizable=0;perimeter=centerPerimeter;rotatable=0;allowArrows=0;points=[];outlineConnect=1;" parent="1v8-vr0Qcsb3jSITrx1u-142" vertex="1">
          <mxGeometry y="51" width="10" height="10" as="geometry" />
        </mxCell>
        <mxCell id="1v8-vr0Qcsb3jSITrx1u-147" value="" style="rounded=1;whiteSpace=wrap;html=1;arcSize=0;" parent="1v8-vr0Qcsb3jSITrx1u-142" vertex="1">
          <mxGeometry x="66" y="13" width="10" height="10" as="geometry" />
        </mxCell>
        <mxCell id="1v8-vr0Qcsb3jSITrx1u-149" style="edgeStyle=orthogonalEdgeStyle;rounded=0;orthogonalLoop=1;jettySize=auto;html=1;entryX=1;entryY=0.5;entryDx=0;entryDy=0;endArrow=none;endFill=0;" parent="1v8-vr0Qcsb3jSITrx1u-98" source="1v8-vr0Qcsb3jSITrx1u-151" target="1v8-vr0Qcsb3jSITrx1u-141" edge="1">
          <mxGeometry relative="1" as="geometry" />
        </mxCell>
        <mxCell id="1v8-vr0Qcsb3jSITrx1u-150" value="" style="group" parent="1v8-vr0Qcsb3jSITrx1u-98" vertex="1" connectable="0">
          <mxGeometry x="204" y="120" width="55" height="45" as="geometry" />
        </mxCell>
        <mxCell id="1v8-vr0Qcsb3jSITrx1u-151" value="" style="shape=providedRequiredInterface;html=1;verticalLabelPosition=bottom;sketch=0;rotation=-180;" parent="1v8-vr0Qcsb3jSITrx1u-150" vertex="1">
          <mxGeometry x="15" y="25" width="20" height="20" as="geometry" />
        </mxCell>
        <mxCell id="1v8-vr0Qcsb3jSITrx1u-152" value="&lt;span style=&quot;color: rgb(0, 0, 0); font-family: Helvetica; font-size: 8px; font-style: normal; font-variant-ligatures: normal; font-variant-caps: normal; font-weight: 400; letter-spacing: normal; orphans: 2; text-align: center; text-indent: 0px; text-transform: none; widows: 2; word-spacing: 0px; -webkit-text-stroke-width: 0px; background-color: rgb(251, 251, 251); text-decoration-thickness: initial; text-decoration-style: initial; text-decoration-color: initial; float: none; display: inline !important;&quot;&gt;ReadStream&lt;br&gt;&lt;/span&gt;" style="text;whiteSpace=wrap;html=1;" parent="1v8-vr0Qcsb3jSITrx1u-150" vertex="1">
          <mxGeometry width="55" height="40" as="geometry" />
        </mxCell>
        <mxCell id="1v8-vr0Qcsb3jSITrx1u-173" value="&lt;span style=&quot;color: rgb(0, 0, 0); font-family: Helvetica; font-size: 8px; font-style: normal; font-variant-ligatures: normal; font-variant-caps: normal; font-weight: 400; letter-spacing: normal; orphans: 2; text-align: center; text-indent: 0px; text-transform: none; widows: 2; word-spacing: 0px; -webkit-text-stroke-width: 0px; background-color: rgb(251, 251, 251); text-decoration-thickness: initial; text-decoration-style: initial; text-decoration-color: initial; float: none; display: inline !important;&quot;&gt;ReadStream&lt;br&gt;&lt;br&gt;&lt;/span&gt;" style="text;whiteSpace=wrap;html=1;" parent="1v8-vr0Qcsb3jSITrx1u-98" vertex="1">
          <mxGeometry x="204" y="240" width="55" height="40" as="geometry" />
        </mxCell>
        <mxCell id="1v8-vr0Qcsb3jSITrx1u-101" value="" style="rounded=1;whiteSpace=wrap;html=1;arcSize=0;" parent="1v8-vr0Qcsb3jSITrx1u-98" vertex="1">
          <mxGeometry x="146" y="35" width="10" height="10" as="geometry" />
        </mxCell>
        <mxCell id="1v8-vr0Qcsb3jSITrx1u-156" value="&amp;lt;&amp;lt;application&amp;gt;&amp;gt;&lt;br&gt;&lt;b&gt;MediaServer&lt;/b&gt;" style="html=1;dropTarget=0;whiteSpace=wrap;" parent="1v8-vr0Qcsb3jSITrx1u-98" vertex="1">
          <mxGeometry x="-29" y="225" width="180" height="100" as="geometry" />
        </mxCell>
        <mxCell id="1v8-vr0Qcsb3jSITrx1u-157" value="" style="shape=module;jettyWidth=8;jettyHeight=4;" parent="1v8-vr0Qcsb3jSITrx1u-156" vertex="1">
          <mxGeometry x="1" width="20" height="20" relative="1" as="geometry">
            <mxPoint x="-27" y="7" as="offset" />
          </mxGeometry>
        </mxCell>
        <mxCell id="1v8-vr0Qcsb3jSITrx1u-158" value="" style="rounded=1;whiteSpace=wrap;html=1;arcSize=0;" parent="1v8-vr0Qcsb3jSITrx1u-98" vertex="1">
          <mxGeometry x="145" y="275" width="10" height="10" as="geometry" />
        </mxCell>
        <mxCell id="1v8-vr0Qcsb3jSITrx1u-102" value="" style="group" parent="1" vertex="1" connectable="0">
          <mxGeometry x="500" y="910" width="170" height="260" as="geometry" />
        </mxCell>
        <mxCell id="1v8-vr0Qcsb3jSITrx1u-103" value="&amp;lt;&amp;lt;application&amp;gt;&amp;gt;&lt;br&gt;&lt;b&gt;SSCS&lt;/b&gt;" style="html=1;dropTarget=0;whiteSpace=wrap;" parent="1v8-vr0Qcsb3jSITrx1u-102" vertex="1">
          <mxGeometry x="1" y="30" width="174" height="260" as="geometry" />
        </mxCell>
        <mxCell id="1v8-vr0Qcsb3jSITrx1u-104" value="" style="shape=module;jettyWidth=8;jettyHeight=4;" parent="1v8-vr0Qcsb3jSITrx1u-103" vertex="1">
          <mxGeometry x="1" width="20" height="20" relative="1" as="geometry">
            <mxPoint x="-27" y="7" as="offset" />
          </mxGeometry>
        </mxCell>
        <mxCell id="1v8-vr0Qcsb3jSITrx1u-129" value="" style="rounded=1;whiteSpace=wrap;html=1;arcSize=0;" parent="1v8-vr0Qcsb3jSITrx1u-102" vertex="1">
          <mxGeometry x="-5" y="73" width="10" height="10" as="geometry" />
        </mxCell>
        <mxCell id="1v8-vr0Qcsb3jSITrx1u-170" value="" style="rounded=1;whiteSpace=wrap;html=1;arcSize=0;" parent="1v8-vr0Qcsb3jSITrx1u-102" vertex="1">
          <mxGeometry x="-5" y="213" width="10" height="10" as="geometry" />
        </mxCell>
        <mxCell id="1v8-vr0Qcsb3jSITrx1u-105" value="" style="group" parent="1" vertex="1" connectable="0">
          <mxGeometry x="108" y="944" width="104" height="61" as="geometry" />
        </mxCell>
        <mxCell id="1v8-vr0Qcsb3jSITrx1u-106" value="" style="ellipse;whiteSpace=wrap;html=1;align=center;aspect=fixed;fillColor=none;strokeColor=none;resizable=0;perimeter=centerPerimeter;rotatable=0;allowArrows=0;points=[];outlineConnect=1;" parent="1v8-vr0Qcsb3jSITrx1u-105" vertex="1">
          <mxGeometry y="51" width="10" height="10" as="geometry" />
        </mxCell>
        <mxCell id="1v8-vr0Qcsb3jSITrx1u-107" value="" style="group" parent="1v8-vr0Qcsb3jSITrx1u-105" vertex="1" connectable="0">
          <mxGeometry x="-38" y="-24" width="60" height="46" as="geometry" />
        </mxCell>
        <mxCell id="1v8-vr0Qcsb3jSITrx1u-108" value="" style="ellipse;whiteSpace=wrap;html=1;aspect=fixed;direction=south;" parent="1v8-vr0Qcsb3jSITrx1u-107" vertex="1">
          <mxGeometry x="25" y="28" width="10" height="10" as="geometry" />
        </mxCell>
        <mxCell id="1v8-vr0Qcsb3jSITrx1u-109" value="&lt;span style=&quot;font-size: 8px;&quot;&gt;PublishStream&lt;/span&gt;" style="text;html=1;strokeColor=none;fillColor=none;align=center;verticalAlign=middle;whiteSpace=wrap;rounded=0;container=0;" parent="1v8-vr0Qcsb3jSITrx1u-107" vertex="1">
          <mxGeometry width="60" height="30" as="geometry" />
        </mxCell>
        <mxCell id="1v8-vr0Qcsb3jSITrx1u-110" value="" style="rounded=1;whiteSpace=wrap;html=1;arcSize=0;" parent="1v8-vr0Qcsb3jSITrx1u-105" vertex="1">
          <mxGeometry x="36" y="4" width="10" height="10" as="geometry" />
        </mxCell>
        <mxCell id="1v8-vr0Qcsb3jSITrx1u-111" style="rounded=0;orthogonalLoop=1;jettySize=auto;html=1;exitX=0.5;exitY=0;exitDx=0;exitDy=0;entryX=0;entryY=0.5;entryDx=0;entryDy=0;strokeColor=default;anchorPointDirection=1;fixDash=0;endArrow=none;endFill=0;" parent="1v8-vr0Qcsb3jSITrx1u-105" source="1v8-vr0Qcsb3jSITrx1u-108" target="1v8-vr0Qcsb3jSITrx1u-110" edge="1">
          <mxGeometry relative="1" as="geometry" />
        </mxCell>
        <mxCell id="1v8-vr0Qcsb3jSITrx1u-126" style="edgeStyle=orthogonalEdgeStyle;rounded=0;orthogonalLoop=1;jettySize=auto;html=1;entryX=1;entryY=0.5;entryDx=0;entryDy=0;endArrow=none;endFill=0;" parent="1" source="1v8-vr0Qcsb3jSITrx1u-128" target="1v8-vr0Qcsb3jSITrx1u-101" edge="1">
          <mxGeometry relative="1" as="geometry" />
        </mxCell>
        <mxCell id="1v8-vr0Qcsb3jSITrx1u-127" style="edgeStyle=orthogonalEdgeStyle;rounded=0;orthogonalLoop=1;jettySize=auto;html=1;entryX=0;entryY=0.5;entryDx=0;entryDy=0;endArrow=none;endFill=0;" parent="1" source="1v8-vr0Qcsb3jSITrx1u-128" target="1v8-vr0Qcsb3jSITrx1u-129" edge="1">
          <mxGeometry relative="1" as="geometry" />
        </mxCell>
        <mxCell id="1v8-vr0Qcsb3jSITrx1u-134" value="" style="group" parent="1" vertex="1" connectable="0">
          <mxGeometry x="385" y="915" width="55" height="45" as="geometry" />
        </mxCell>
        <mxCell id="1v8-vr0Qcsb3jSITrx1u-128" value="" style="shape=providedRequiredInterface;html=1;verticalLabelPosition=bottom;sketch=0;rotation=-180;" parent="1v8-vr0Qcsb3jSITrx1u-134" vertex="1">
          <mxGeometry x="15" y="25" width="20" height="20" as="geometry" />
        </mxCell>
        <mxCell id="1v8-vr0Qcsb3jSITrx1u-130" value="&lt;span style=&quot;color: rgb(0, 0, 0); font-family: Helvetica; font-size: 8px; font-style: normal; font-variant-ligatures: normal; font-variant-caps: normal; font-weight: 400; letter-spacing: normal; orphans: 2; text-align: center; text-indent: 0px; text-transform: none; widows: 2; word-spacing: 0px; -webkit-text-stroke-width: 0px; background-color: rgb(251, 251, 251); text-decoration-thickness: initial; text-decoration-style: initial; text-decoration-color: initial; float: none; display: inline !important;&quot;&gt;ReadStream&lt;br&gt;&lt;br&gt;&lt;/span&gt;" style="text;whiteSpace=wrap;html=1;" parent="1v8-vr0Qcsb3jSITrx1u-134" vertex="1">
          <mxGeometry width="55" height="40" as="geometry" />
        </mxCell>
        <mxCell id="1v8-vr0Qcsb3jSITrx1u-159" value="" style="group" parent="1" vertex="1" connectable="0">
          <mxGeometry x="70" y="1180" width="104" height="61" as="geometry" />
        </mxCell>
        <mxCell id="1v8-vr0Qcsb3jSITrx1u-160" value="" style="ellipse;whiteSpace=wrap;html=1;align=center;aspect=fixed;fillColor=none;strokeColor=none;resizable=0;perimeter=centerPerimeter;rotatable=0;allowArrows=0;points=[];outlineConnect=1;" parent="1v8-vr0Qcsb3jSITrx1u-159" vertex="1">
          <mxGeometry y="51" width="10" height="10" as="geometry" />
        </mxCell>
        <mxCell id="1v8-vr0Qcsb3jSITrx1u-161" value="" style="group" parent="1v8-vr0Qcsb3jSITrx1u-159" vertex="1" connectable="0">
          <mxGeometry y="-15" width="60" height="46" as="geometry" />
        </mxCell>
        <mxCell id="1v8-vr0Qcsb3jSITrx1u-162" value="" style="ellipse;whiteSpace=wrap;html=1;aspect=fixed;direction=south;" parent="1v8-vr0Qcsb3jSITrx1u-161" vertex="1">
          <mxGeometry x="25" y="28" width="10" height="10" as="geometry" />
        </mxCell>
        <mxCell id="1v8-vr0Qcsb3jSITrx1u-163" value="&lt;span style=&quot;font-size: 8px;&quot;&gt;PublishStream&lt;/span&gt;" style="text;html=1;strokeColor=none;fillColor=none;align=center;verticalAlign=middle;whiteSpace=wrap;rounded=0;container=0;" parent="1v8-vr0Qcsb3jSITrx1u-161" vertex="1">
          <mxGeometry width="60" height="30" as="geometry" />
        </mxCell>
        <mxCell id="1v8-vr0Qcsb3jSITrx1u-164" value="" style="rounded=1;whiteSpace=wrap;html=1;arcSize=0;" parent="1v8-vr0Qcsb3jSITrx1u-159" vertex="1">
          <mxGeometry x="78" y="13" width="10" height="10" as="geometry" />
        </mxCell>
        <mxCell id="1v8-vr0Qcsb3jSITrx1u-165" style="rounded=0;orthogonalLoop=1;jettySize=auto;html=1;exitX=0.5;exitY=0;exitDx=0;exitDy=0;entryX=0;entryY=0.5;entryDx=0;entryDy=0;strokeColor=default;anchorPointDirection=1;fixDash=0;endArrow=none;endFill=0;" parent="1v8-vr0Qcsb3jSITrx1u-159" source="1v8-vr0Qcsb3jSITrx1u-162" target="1v8-vr0Qcsb3jSITrx1u-164" edge="1">
          <mxGeometry relative="1" as="geometry" />
        </mxCell>
        <mxCell id="1v8-vr0Qcsb3jSITrx1u-166" style="edgeStyle=orthogonalEdgeStyle;rounded=0;orthogonalLoop=1;jettySize=auto;html=1;entryX=1;entryY=0.5;entryDx=0;entryDy=0;endArrow=none;endFill=0;" parent="1" source="1v8-vr0Qcsb3jSITrx1u-167" target="1v8-vr0Qcsb3jSITrx1u-158" edge="1">
          <mxGeometry relative="1" as="geometry" />
        </mxCell>
        <mxCell id="1v8-vr0Qcsb3jSITrx1u-167" value="" style="shape=providedRequiredInterface;html=1;verticalLabelPosition=bottom;sketch=0;rotation=-180;" parent="1" vertex="1">
          <mxGeometry x="407" y="1180" width="20" height="20" as="geometry" />
        </mxCell>
        <mxCell id="1v8-vr0Qcsb3jSITrx1u-168" value="" style="rounded=1;whiteSpace=wrap;html=1;arcSize=0;" parent="1" vertex="1">
          <mxGeometry x="496" y="1061" width="10" height="10" as="geometry" />
        </mxCell>
        <mxCell id="1v8-vr0Qcsb3jSITrx1u-171" style="edgeStyle=orthogonalEdgeStyle;rounded=0;orthogonalLoop=1;jettySize=auto;html=1;entryX=0;entryY=0.5;entryDx=0;entryDy=0;endArrow=none;endFill=0;exitX=0;exitY=0.5;exitDx=0;exitDy=0;exitPerimeter=0;" parent="1" source="1v8-vr0Qcsb3jSITrx1u-167" target="1v8-vr0Qcsb3jSITrx1u-170" edge="1">
          <mxGeometry relative="1" as="geometry">
            <mxPoint x="420" y="1090" as="sourcePoint" />
          </mxGeometry>
        </mxCell>
        <mxCell id="1v8-vr0Qcsb3jSITrx1u-174" style="edgeStyle=orthogonalEdgeStyle;rounded=0;orthogonalLoop=1;jettySize=auto;html=1;entryX=0.655;entryY=0.9;entryDx=0;entryDy=0;entryPerimeter=0;endArrow=none;endFill=0;" parent="1" source="1v8-vr0Qcsb3jSITrx1u-168" target="1v8-vr0Qcsb3jSITrx1u-152" edge="1">
          <mxGeometry relative="1" as="geometry" />
        </mxCell>
        <mxCell id="1v8-vr0Qcsb3jSITrx1u-144" value="" style="group" parent="1" vertex="1" connectable="0">
          <mxGeometry x="70" y="1044" width="60" height="46" as="geometry" />
        </mxCell>
        <mxCell id="1v8-vr0Qcsb3jSITrx1u-145" value="" style="ellipse;whiteSpace=wrap;html=1;aspect=fixed;direction=south;" parent="1v8-vr0Qcsb3jSITrx1u-144" vertex="1">
          <mxGeometry x="25" y="28" width="10" height="10" as="geometry" />
        </mxCell>
        <mxCell id="1v8-vr0Qcsb3jSITrx1u-146" value="&lt;span style=&quot;font-size: 8px;&quot;&gt;PublishStream&lt;/span&gt;" style="text;html=1;strokeColor=none;fillColor=none;align=center;verticalAlign=middle;whiteSpace=wrap;rounded=0;container=0;" parent="1v8-vr0Qcsb3jSITrx1u-144" vertex="1">
          <mxGeometry width="60" height="30" as="geometry" />
        </mxCell>
        <mxCell id="1v8-vr0Qcsb3jSITrx1u-148" style="rounded=0;orthogonalLoop=1;jettySize=auto;html=1;exitX=0.5;exitY=0;exitDx=0;exitDy=0;entryX=0;entryY=0.5;entryDx=0;entryDy=0;strokeColor=default;anchorPointDirection=1;fixDash=0;endArrow=none;endFill=0;" parent="1" source="1v8-vr0Qcsb3jSITrx1u-145" target="1v8-vr0Qcsb3jSITrx1u-147" edge="1">
          <mxGeometry relative="1" as="geometry" />
        </mxCell>
        <mxCell id="VNFblEN0b3wX1P5wx99s-108" value="" style="shape=providedRequiredInterface;html=1;verticalLabelPosition=bottom;sketch=0;rotation=-180;" parent="1" vertex="1">
          <mxGeometry x="454" y="630" width="20" height="20" as="geometry" />
        </mxCell>
        <mxCell id="VNFblEN0b3wX1P5wx99s-110" value="&lt;span style=&quot;color: rgb(0, 0, 0); font-family: Helvetica; font-size: 8px; font-style: normal; font-variant-ligatures: normal; font-variant-caps: normal; font-weight: 400; letter-spacing: normal; orphans: 2; text-align: center; text-indent: 0px; text-transform: none; widows: 2; word-spacing: 0px; -webkit-text-stroke-width: 0px; background-color: rgb(251, 251, 251); text-decoration-thickness: initial; text-decoration-style: initial; text-decoration-color: initial; float: none; display: inline !important;&quot;&gt;ReadStream&lt;br&gt;&lt;br&gt;&lt;/span&gt;" style="text;whiteSpace=wrap;html=1;" parent="1" vertex="1">
          <mxGeometry x="441" y="604.5" width="46" height="20" as="geometry" />
        </mxCell>
        <mxCell id="VNFblEN0b3wX1P5wx99s-111" value="" style="edgeStyle=orthogonalEdgeStyle;rounded=0;orthogonalLoop=1;jettySize=auto;html=1;entryX=1;entryY=0.5;entryDx=0;entryDy=0;endArrow=none;endFill=0;" parent="1" source="VNFblEN0b3wX1P5wx99s-108" target="VNFblEN0b3wX1P5wx99s-112" edge="1">
          <mxGeometry relative="1" as="geometry">
            <mxPoint x="464" y="645" as="sourcePoint" />
            <mxPoint x="265" y="645" as="targetPoint" />
          </mxGeometry>
        </mxCell>
        <mxCell id="VNFblEN0b3wX1P5wx99s-112" value="" style="rhombus;whiteSpace=wrap;html=1;" parent="1" vertex="1">
          <mxGeometry x="385" y="632.5" width="36" height="15" as="geometry" />
        </mxCell>
        <mxCell id="VNFblEN0b3wX1P5wx99s-123" value="" style="endArrow=none;html=1;rounded=0;exitX=0.5;exitY=0;exitDx=0;exitDy=0;entryX=0;entryY=0.5;entryDx=0;entryDy=0;" parent="1" source="VNFblEN0b3wX1P5wx99s-121" target="1v8-vr0Qcsb3jSITrx1u-3" edge="1">
          <mxGeometry width="50" height="50" relative="1" as="geometry">
            <mxPoint x="130" y="190" as="sourcePoint" />
            <mxPoint x="180" y="140" as="targetPoint" />
          </mxGeometry>
        </mxCell>
        <mxCell id="VNFblEN0b3wX1P5wx99s-122" value="&lt;span style=&quot;font-size: 8px;&quot;&gt;PublishStream&lt;/span&gt;" style="text;html=1;strokeColor=none;fillColor=none;align=center;verticalAlign=middle;whiteSpace=wrap;rounded=0;container=0;" parent="1" vertex="1">
          <mxGeometry x="125" y="182.5" width="50" height="16.25" as="geometry" />
        </mxCell>
        <mxCell id="VNFblEN0b3wX1P5wx99s-121" value="" style="ellipse;whiteSpace=wrap;html=1;aspect=fixed;direction=south;" parent="1" vertex="1">
          <mxGeometry x="145" y="202.5" width="10" height="10" as="geometry" />
        </mxCell>
        <mxCell id="VNFblEN0b3wX1P5wx99s-131" value="" style="rounded=0;orthogonalLoop=1;jettySize=auto;html=1;endArrow=halfCircle;endFill=0;endSize=6;strokeWidth=1;sketch=0;fontSize=12;curved=1;entryX=0.626;entryY=0.076;entryDx=0;entryDy=0;entryPerimeter=0;exitX=1;exitY=0.5;exitDx=0;exitDy=0;" parent="1" edge="1">
          <mxGeometry relative="1" as="geometry">
            <mxPoint x="361" y="207.36" as="sourcePoint" />
            <mxPoint x="427" y="207.36" as="targetPoint" />
            <Array as="points">
              <mxPoint x="385" y="207.36" />
            </Array>
          </mxGeometry>
        </mxCell>
        <mxCell id="VNFblEN0b3wX1P5wx99s-132" value="" style="ellipse;whiteSpace=wrap;html=1;align=center;aspect=fixed;fillColor=none;strokeColor=none;resizable=0;perimeter=centerPerimeter;rotatable=0;allowArrows=0;points=[];outlineConnect=1;" parent="1" vertex="1">
          <mxGeometry x="427" y="210" width="10" height="10" as="geometry" />
        </mxCell>
        <mxCell id="R4DTEAscSzS3uEEY_zII-14" value="&amp;lt;&amp;lt;application&amp;gt;&amp;gt;&lt;br&gt;&lt;b&gt;MediaServer&lt;/b&gt;" style="html=1;dropTarget=0;whiteSpace=wrap;" parent="1" vertex="1">
          <mxGeometry x="226" y="600" width="159" height="80" as="geometry" />
        </mxCell>
        <mxCell id="R4DTEAscSzS3uEEY_zII-15" value="" style="shape=module;jettyWidth=8;jettyHeight=4;" parent="R4DTEAscSzS3uEEY_zII-14" vertex="1">
          <mxGeometry x="1" width="20" height="20" relative="1" as="geometry">
            <mxPoint x="-27" y="7" as="offset" />
          </mxGeometry>
        </mxCell>
        <mxCell id="VNFblEN0b3wX1P5wx99s-104" value="&lt;span style=&quot;font-size: 8px;&quot;&gt;PublishStream&lt;/span&gt;" style="text;html=1;strokeColor=none;fillColor=none;align=center;verticalAlign=middle;whiteSpace=wrap;rounded=0;container=0;" parent="1" vertex="1">
          <mxGeometry x="130" y="604.5" width="60" height="30" as="geometry" />
        </mxCell>
        <mxCell id="R4DTEAscSzS3uEEY_zII-16" value="" style="ellipse;whiteSpace=wrap;html=1;aspect=fixed;" parent="1" vertex="1">
          <mxGeometry x="145" y="632.25" width="15.5" height="15.5" as="geometry" />
        </mxCell>
        <mxCell id="R4DTEAscSzS3uEEY_zII-18" value="" style="endArrow=none;html=1;rounded=0;entryX=0.001;entryY=0.442;entryDx=0;entryDy=0;entryPerimeter=0;exitX=0;exitY=0.5;exitDx=0;exitDy=0;exitPerimeter=0;" parent="1" source="VNFblEN0b3wX1P5wx99s-108" edge="1">
          <mxGeometry width="50" height="50" relative="1" as="geometry">
            <mxPoint x="480" y="710" as="sourcePoint" />
            <mxPoint x="510.15999999999985" y="639.7800000000001" as="targetPoint" />
          </mxGeometry>
        </mxCell>
        <mxCell id="R4DTEAscSzS3uEEY_zII-19" value="&amp;lt;&amp;lt;application&amp;gt;&amp;gt;&lt;br&gt;&lt;b&gt;SSCS&lt;/b&gt;" style="html=1;dropTarget=0;whiteSpace=wrap;" parent="1" vertex="1">
          <mxGeometry x="511" y="600" width="159" height="80" as="geometry" />
        </mxCell>
        <mxCell id="R4DTEAscSzS3uEEY_zII-20" value="" style="shape=module;jettyWidth=8;jettyHeight=4;" parent="R4DTEAscSzS3uEEY_zII-19" vertex="1">
          <mxGeometry x="1" width="20" height="20" relative="1" as="geometry">
            <mxPoint x="-27" y="7" as="offset" />
          </mxGeometry>
        </mxCell>
        <mxCell id="R4DTEAscSzS3uEEY_zII-21" value="" style="endArrow=none;html=1;rounded=0;entryX=0;entryY=0.5;entryDx=0;entryDy=0;exitX=1;exitY=0.5;exitDx=0;exitDy=0;" parent="1" source="R4DTEAscSzS3uEEY_zII-16" target="R4DTEAscSzS3uEEY_zII-14" edge="1">
          <mxGeometry width="50" height="50" relative="1" as="geometry">
            <mxPoint x="180" y="690" as="sourcePoint" />
            <mxPoint x="230" y="640" as="targetPoint" />
          </mxGeometry>
        </mxCell>
        <mxCell id="j7I74pfz4h57ISqoJ7sx-15" value="record" style="text;html=1;align=center;verticalAlign=middle;resizable=0;points=[];autosize=1;strokeColor=none;fillColor=none;" parent="1" vertex="1">
          <mxGeometry x="861" y="168.75" width="60" height="30" as="geometry" />
        </mxCell>
        <mxCell id="j7I74pfz4h57ISqoJ7sx-16" value="" style="shape=providedRequiredInterface;html=1;verticalLabelPosition=bottom;sketch=0;rotation=90;" parent="1" vertex="1">
          <mxGeometry x="1051" y="290" width="23" height="20" as="geometry" />
        </mxCell>
        <mxCell id="j7I74pfz4h57ISqoJ7sx-17" style="edgeStyle=orthogonalEdgeStyle;rounded=0;orthogonalLoop=1;jettySize=auto;html=1;exitX=0.5;exitY=0;exitDx=0;exitDy=0;entryX=1;entryY=0.5;entryDx=0;entryDy=0;entryPerimeter=0;endArrow=none;endFill=0;" parent="1" source="j7I74pfz4h57ISqoJ7sx-9" target="j7I74pfz4h57ISqoJ7sx-16" edge="1">
          <mxGeometry relative="1" as="geometry" />
        </mxCell>
        <mxCell id="j7I74pfz4h57ISqoJ7sx-9" value="&amp;lt;&amp;lt;component&amp;gt;&amp;gt;&lt;br&gt;&lt;b&gt;Indexer&lt;/b&gt;" style="html=1;dropTarget=0;whiteSpace=wrap;" parent="1" vertex="1">
          <mxGeometry x="982" y="330" width="164" height="65" as="geometry" />
        </mxCell>
        <mxCell id="j7I74pfz4h57ISqoJ7sx-10" value="" style="shape=module;jettyWidth=8;jettyHeight=4;" parent="j7I74pfz4h57ISqoJ7sx-9" vertex="1">
          <mxGeometry x="1" width="23" height="20" relative="1" as="geometry">
            <mxPoint x="-27" y="7" as="offset" />
          </mxGeometry>
        </mxCell>
        <mxCell id="j7I74pfz4h57ISqoJ7sx-5" value="" style="group" parent="1" vertex="1" connectable="0">
          <mxGeometry x="212" y="267.5" width="165" height="65" as="geometry" />
        </mxCell>
        <mxCell id="j7I74pfz4h57ISqoJ7sx-6" value="&amp;lt;&amp;lt;component&amp;gt;&amp;gt;&lt;br&gt;&lt;b&gt;MediaServer&lt;/b&gt;" style="html=1;dropTarget=0;whiteSpace=wrap;" parent="j7I74pfz4h57ISqoJ7sx-5" vertex="1">
          <mxGeometry width="160" height="65" as="geometry" />
        </mxCell>
        <mxCell id="j7I74pfz4h57ISqoJ7sx-7" value="" style="shape=module;jettyWidth=8;jettyHeight=4;" parent="j7I74pfz4h57ISqoJ7sx-6" vertex="1">
          <mxGeometry x="1" width="20" height="20" relative="1" as="geometry">
            <mxPoint x="-27" y="7" as="offset" />
          </mxGeometry>
        </mxCell>
        <mxCell id="j7I74pfz4h57ISqoJ7sx-22" style="edgeStyle=orthogonalEdgeStyle;rounded=0;orthogonalLoop=1;jettySize=auto;html=1;exitX=0;exitY=0.5;exitDx=0;exitDy=0;endArrow=halfCircle;endFill=0;" parent="1" source="j7I74pfz4h57ISqoJ7sx-2" edge="1">
          <mxGeometry relative="1" as="geometry">
            <mxPoint x="901" y="215" as="targetPoint" />
          </mxGeometry>
        </mxCell>
        <mxCell id="j7I74pfz4h57ISqoJ7sx-24" style="edgeStyle=orthogonalEdgeStyle;rounded=0;orthogonalLoop=1;jettySize=auto;html=1;endArrow=circle;endFill=0;" parent="1" source="j7I74pfz4h57ISqoJ7sx-2" edge="1">
          <mxGeometry relative="1" as="geometry">
            <mxPoint x="1221" y="215.0000000000001" as="targetPoint" />
          </mxGeometry>
        </mxCell>
        <mxCell id="j7I74pfz4h57ISqoJ7sx-2" value="&amp;lt;&amp;lt;component&amp;gt;&amp;gt;&lt;br&gt;&lt;b&gt;Recorder&lt;/b&gt;" style="html=1;dropTarget=0;whiteSpace=wrap;" parent="1" vertex="1">
          <mxGeometry x="981" y="182.5" width="163" height="65" as="geometry" />
        </mxCell>
        <mxCell id="j7I74pfz4h57ISqoJ7sx-3" value="" style="shape=module;jettyWidth=8;jettyHeight=4;" parent="j7I74pfz4h57ISqoJ7sx-2" vertex="1">
          <mxGeometry x="1" width="23" height="20" relative="1" as="geometry">
            <mxPoint x="-27" y="7" as="offset" />
          </mxGeometry>
        </mxCell>
        <mxCell id="1v8-vr0Qcsb3jSITrx1u-3" value="&amp;lt;&amp;lt;component&amp;gt;&amp;gt;&lt;br&gt;&lt;b&gt;MediaServer&lt;/b&gt;" style="html=1;dropTarget=0;whiteSpace=wrap;" parent="1" vertex="1">
          <mxGeometry x="210" y="175" width="160" height="65" as="geometry" />
        </mxCell>
        <mxCell id="1v8-vr0Qcsb3jSITrx1u-4" value="" style="shape=module;jettyWidth=8;jettyHeight=4;" parent="1v8-vr0Qcsb3jSITrx1u-3" vertex="1">
          <mxGeometry x="1" width="20" height="20" relative="1" as="geometry">
            <mxPoint x="-27" y="7" as="offset" />
          </mxGeometry>
        </mxCell>
        <mxCell id="j7I74pfz4h57ISqoJ7sx-23" style="edgeStyle=orthogonalEdgeStyle;rounded=0;orthogonalLoop=1;jettySize=auto;html=1;entryX=0;entryY=0.5;entryDx=0;entryDy=0;entryPerimeter=0;endArrow=none;endFill=0;" parent="1" source="j7I74pfz4h57ISqoJ7sx-2" target="j7I74pfz4h57ISqoJ7sx-16" edge="1">
          <mxGeometry relative="1" as="geometry" />
        </mxCell>
        <mxCell id="j7I74pfz4h57ISqoJ7sx-25" value="sendFrame" style="text;html=1;align=center;verticalAlign=middle;resizable=0;points=[];autosize=1;strokeColor=none;fillColor=none;" parent="1" vertex="1">
          <mxGeometry x="1161" y="168.75" width="80" height="30" as="geometry" />
        </mxCell>
        <mxCell id="j7I74pfz4h57ISqoJ7sx-26" value="RecordedEvent" style="text;html=1;align=center;verticalAlign=middle;resizable=0;points=[];autosize=1;strokeColor=none;fillColor=none;" parent="1" vertex="1">
          <mxGeometry x="1071" y="280" width="110" height="30" as="geometry" />
        </mxCell>
        <mxCell id="j7I74pfz4h57ISqoJ7sx-27" value="Servidor &lt;br&gt;Web" style="whiteSpace=wrap;html=1;aspect=fixed;dashed=1;" parent="1" vertex="1">
          <mxGeometry x="1000" y="560" width="80" height="80" as="geometry" />
        </mxCell>
        <mxCell id="j7I74pfz4h57ISqoJ7sx-28" value="Navegador Web" style="whiteSpace=wrap;html=1;aspect=fixed;dashed=1;" parent="1" vertex="1">
          <mxGeometry x="1270" y="560" width="80" height="80" as="geometry" />
        </mxCell>
        <mxCell id="j7I74pfz4h57ISqoJ7sx-29" value="" style="endArrow=classic;html=1;rounded=0;dashed=1;" parent="1" edge="1">
          <mxGeometry width="50" height="50" relative="1" as="geometry">
            <mxPoint x="1260" y="560" as="sourcePoint" />
            <mxPoint x="1260" y="640" as="targetPoint" />
          </mxGeometry>
        </mxCell>
        <mxCell id="j7I74pfz4h57ISqoJ7sx-30" value="" style="endArrow=classic;html=1;rounded=0;dashed=1;" parent="1" edge="1">
          <mxGeometry width="50" height="50" relative="1" as="geometry">
            <mxPoint x="1090" y="560" as="sourcePoint" />
            <mxPoint x="1090" y="640" as="targetPoint" />
          </mxGeometry>
        </mxCell>
        <mxCell id="j7I74pfz4h57ISqoJ7sx-33" value="" style="endArrow=none;html=1;strokeWidth=2;rounded=0;endFill=0;startArrow=classic;startFill=1;dashed=1;dashPattern=1 4;" parent="1" edge="1">
          <mxGeometry width="50" height="50" relative="1" as="geometry">
            <mxPoint x="1100" y="570" as="sourcePoint" />
            <mxPoint x="1260" y="560" as="targetPoint" />
          </mxGeometry>
        </mxCell>
        <mxCell id="j7I74pfz4h57ISqoJ7sx-34" value="HTTP GET" style="edgeLabel;html=1;align=center;verticalAlign=middle;resizable=0;points=[];rotation=-5;" parent="j7I74pfz4h57ISqoJ7sx-33" vertex="1" connectable="0">
          <mxGeometry x="-0.1991" y="2" relative="1" as="geometry">
            <mxPoint x="16" as="offset" />
          </mxGeometry>
        </mxCell>
        <mxCell id="j7I74pfz4h57ISqoJ7sx-35" value="" style="endArrow=none;html=1;strokeWidth=2;rounded=0;endFill=0;startArrow=classic;startFill=1;dashed=1;dashPattern=1 4;" parent="1" edge="1">
          <mxGeometry width="50" height="50" relative="1" as="geometry">
            <mxPoint x="1260" y="600" as="sourcePoint" />
            <mxPoint x="1100" y="585" as="targetPoint" />
          </mxGeometry>
        </mxCell>
        <mxCell id="j7I74pfz4h57ISqoJ7sx-36" value="Arquivo de descrição" style="edgeLabel;html=1;align=center;verticalAlign=middle;resizable=0;points=[];rotation=5;" parent="j7I74pfz4h57ISqoJ7sx-35" vertex="1" connectable="0">
          <mxGeometry x="-0.1991" y="2" relative="1" as="geometry">
            <mxPoint x="-28" y="-4" as="offset" />
          </mxGeometry>
        </mxCell>
        <mxCell id="j7I74pfz4h57ISqoJ7sx-39" value="" style="endArrow=classic;html=1;rounded=0;" parent="1" edge="1">
          <mxGeometry width="50" height="50" relative="1" as="geometry">
            <mxPoint x="1260" y="647.5" as="sourcePoint" />
            <mxPoint x="1260" y="837.5" as="targetPoint" />
          </mxGeometry>
        </mxCell>
        <mxCell id="j7I74pfz4h57ISqoJ7sx-40" value="" style="endArrow=classic;html=1;rounded=0;" parent="1" edge="1">
          <mxGeometry width="50" height="50" relative="1" as="geometry">
            <mxPoint x="1090" y="647.5" as="sourcePoint" />
            <mxPoint x="1090" y="837.5" as="targetPoint" />
          </mxGeometry>
        </mxCell>
        <mxCell id="j7I74pfz4h57ISqoJ7sx-41" value="Cliente de mídia" style="rounded=0;whiteSpace=wrap;html=1;" parent="1" vertex="1">
          <mxGeometry x="1275" y="650" width="70" height="190" as="geometry" />
        </mxCell>
        <mxCell id="j7I74pfz4h57ISqoJ7sx-42" value="Servidor de mídia" style="rounded=0;whiteSpace=wrap;html=1;" parent="1" vertex="1">
          <mxGeometry x="1004" y="650" width="70" height="190" as="geometry" />
        </mxCell>
        <mxCell id="j7I74pfz4h57ISqoJ7sx-43" value="" style="endArrow=classic;html=1;rounded=0;" parent="1" edge="1">
          <mxGeometry width="50" height="50" relative="1" as="geometry">
            <mxPoint x="1260" y="670" as="sourcePoint" />
            <mxPoint x="1090" y="670" as="targetPoint" />
          </mxGeometry>
        </mxCell>
        <mxCell id="j7I74pfz4h57ISqoJ7sx-44" value="SETUP" style="edgeLabel;html=1;align=center;verticalAlign=middle;resizable=0;points=[];" parent="j7I74pfz4h57ISqoJ7sx-43" vertex="1" connectable="0">
          <mxGeometry x="-0.3443" y="2" relative="1" as="geometry">
            <mxPoint x="-23" y="-3" as="offset" />
          </mxGeometry>
        </mxCell>
        <mxCell id="j7I74pfz4h57ISqoJ7sx-46" value="" style="endArrow=classic;html=1;rounded=0;" parent="1" edge="1">
          <mxGeometry width="50" height="50" relative="1" as="geometry">
            <mxPoint x="1090" y="680" as="sourcePoint" />
            <mxPoint x="1260" y="680" as="targetPoint" />
          </mxGeometry>
        </mxCell>
        <mxCell id="j7I74pfz4h57ISqoJ7sx-48" value="" style="endArrow=classic;html=1;rounded=0;" parent="1" edge="1">
          <mxGeometry width="50" height="50" relative="1" as="geometry">
            <mxPoint x="1260" y="690" as="sourcePoint" />
            <mxPoint x="1090" y="690" as="targetPoint" />
          </mxGeometry>
        </mxCell>
        <mxCell id="j7I74pfz4h57ISqoJ7sx-49" value="PLAY" style="edgeLabel;html=1;align=center;verticalAlign=middle;resizable=0;points=[];" parent="j7I74pfz4h57ISqoJ7sx-48" vertex="1" connectable="0">
          <mxGeometry x="-0.3443" y="2" relative="1" as="geometry">
            <mxPoint x="-23" y="-2" as="offset" />
          </mxGeometry>
        </mxCell>
        <mxCell id="j7I74pfz4h57ISqoJ7sx-50" value="" style="endArrow=classic;html=1;rounded=0;" parent="1" edge="1">
          <mxGeometry width="50" height="50" relative="1" as="geometry">
            <mxPoint x="1090" y="700" as="sourcePoint" />
            <mxPoint x="1260" y="700" as="targetPoint" />
          </mxGeometry>
        </mxCell>
        <mxCell id="j7I74pfz4h57ISqoJ7sx-51" value="" style="endArrow=classic;html=1;rounded=0;strokeWidth=2;" parent="1" edge="1">
          <mxGeometry width="50" height="50" relative="1" as="geometry">
            <mxPoint x="1090" y="730" as="sourcePoint" />
            <mxPoint x="1260" y="730" as="targetPoint" />
          </mxGeometry>
        </mxCell>
        <mxCell id="j7I74pfz4h57ISqoJ7sx-52" value="dados de mídia RTP" style="edgeLabel;html=1;align=center;verticalAlign=middle;resizable=0;points=[];" parent="j7I74pfz4h57ISqoJ7sx-51" vertex="1" connectable="0">
          <mxGeometry x="0.0322" y="-2" relative="1" as="geometry">
            <mxPoint y="-2" as="offset" />
          </mxGeometry>
        </mxCell>
        <mxCell id="j7I74pfz4h57ISqoJ7sx-53" value="" style="endArrow=classic;html=1;rounded=0;strokeWidth=2;" parent="1" edge="1">
          <mxGeometry width="50" height="50" relative="1" as="geometry">
            <mxPoint x="1090" y="744.71" as="sourcePoint" />
            <mxPoint x="1260" y="744.71" as="targetPoint" />
          </mxGeometry>
        </mxCell>
        <mxCell id="j7I74pfz4h57ISqoJ7sx-55" value="" style="endArrow=classic;html=1;rounded=0;" parent="1" edge="1">
          <mxGeometry width="50" height="50" relative="1" as="geometry">
            <mxPoint x="1260" y="800" as="sourcePoint" />
            <mxPoint x="1090" y="800" as="targetPoint" />
          </mxGeometry>
        </mxCell>
        <mxCell id="j7I74pfz4h57ISqoJ7sx-56" value="CLOSE" style="edgeLabel;html=1;align=center;verticalAlign=middle;resizable=0;points=[];" parent="j7I74pfz4h57ISqoJ7sx-55" vertex="1" connectable="0">
          <mxGeometry x="-0.3443" y="2" relative="1" as="geometry">
            <mxPoint x="-23" y="-2" as="offset" />
          </mxGeometry>
        </mxCell>
        <mxCell id="j7I74pfz4h57ISqoJ7sx-57" value="" style="endArrow=classic;html=1;rounded=0;" parent="1" edge="1">
          <mxGeometry width="50" height="50" relative="1" as="geometry">
            <mxPoint x="1090" y="810" as="sourcePoint" />
            <mxPoint x="1260" y="810" as="targetPoint" />
          </mxGeometry>
        </mxCell>
        <mxCell id="j7I74pfz4h57ISqoJ7sx-58" value="" style="endArrow=none;dashed=1;html=1;dashPattern=1 3;strokeWidth=2;rounded=0;" parent="1" edge="1">
          <mxGeometry width="50" height="50" relative="1" as="geometry">
            <mxPoint x="1180" y="780" as="sourcePoint" />
            <mxPoint x="1180" y="750" as="targetPoint" />
          </mxGeometry>
        </mxCell>
        <mxCell id="yRdWReoldbdWuSlMGTD_-1" value="record" style="text;html=1;align=center;verticalAlign=middle;resizable=0;points=[];autosize=1;strokeColor=none;fillColor=none;" parent="1" vertex="1">
          <mxGeometry x="910" y="-355.62" width="60" height="30" as="geometry" />
        </mxCell>
        <mxCell id="yRdWReoldbdWuSlMGTD_-6" style="edgeStyle=orthogonalEdgeStyle;rounded=0;orthogonalLoop=1;jettySize=auto;html=1;exitX=0;exitY=0.5;exitDx=0;exitDy=0;endArrow=halfCircle;endFill=0;" parent="1" source="yRdWReoldbdWuSlMGTD_-8" edge="1">
          <mxGeometry relative="1" as="geometry">
            <mxPoint x="940" y="-309.37" as="targetPoint" />
          </mxGeometry>
        </mxCell>
        <mxCell id="yRdWReoldbdWuSlMGTD_-7" style="edgeStyle=orthogonalEdgeStyle;rounded=0;orthogonalLoop=1;jettySize=auto;html=1;endArrow=circle;endFill=0;" parent="1" source="yRdWReoldbdWuSlMGTD_-8" edge="1">
          <mxGeometry relative="1" as="geometry">
            <mxPoint x="1260" y="-309.3699999999999" as="targetPoint" />
          </mxGeometry>
        </mxCell>
        <mxCell id="yRdWReoldbdWuSlMGTD_-8" value="&amp;lt;&amp;lt;component&amp;gt;&amp;gt;&lt;br&gt;&lt;b&gt;Recorder&lt;/b&gt;" style="html=1;dropTarget=0;whiteSpace=wrap;" parent="1" vertex="1">
          <mxGeometry x="1020" y="-341.87" width="163" height="65" as="geometry" />
        </mxCell>
        <mxCell id="yRdWReoldbdWuSlMGTD_-9" value="" style="shape=module;jettyWidth=8;jettyHeight=4;" parent="yRdWReoldbdWuSlMGTD_-8" vertex="1">
          <mxGeometry x="1" width="23" height="20" relative="1" as="geometry">
            <mxPoint x="-27" y="7" as="offset" />
          </mxGeometry>
        </mxCell>
        <mxCell id="yRdWReoldbdWuSlMGTD_-10" style="edgeStyle=orthogonalEdgeStyle;rounded=0;orthogonalLoop=1;jettySize=auto;html=1;entryX=0;entryY=0.5;entryDx=0;entryDy=0;entryPerimeter=0;endArrow=circle;endFill=0;startArrow=none;startFill=0;" parent="1" source="yRdWReoldbdWuSlMGTD_-8" edge="1">
          <mxGeometry relative="1" as="geometry">
            <mxPoint x="1101.5000000000002" y="-235.87000000000023" as="targetPoint" />
          </mxGeometry>
        </mxCell>
        <mxCell id="yRdWReoldbdWuSlMGTD_-11" value="sendFrame" style="text;html=1;align=center;verticalAlign=middle;resizable=0;points=[];autosize=1;strokeColor=none;fillColor=none;" parent="1" vertex="1">
          <mxGeometry x="1200" y="-355.62" width="80" height="30" as="geometry" />
        </mxCell>
        <mxCell id="yRdWReoldbdWuSlMGTD_-12" value="RecordedEvent" style="text;html=1;align=center;verticalAlign=middle;resizable=0;points=[];autosize=1;strokeColor=none;fillColor=none;" parent="1" vertex="1">
          <mxGeometry x="1110" y="-244.37" width="110" height="30" as="geometry" />
        </mxCell>
        <mxCell id="yRdWReoldbdWuSlMGTD_-32" value="RecordedEvent" style="text;html=1;align=center;verticalAlign=middle;resizable=0;points=[];autosize=1;strokeColor=none;fillColor=none;" parent="1" vertex="1">
          <mxGeometry x="491.9986351706037" y="-140.00103448275877" width="110" height="30" as="geometry" />
        </mxCell>
        <mxCell id="yRdWReoldbdWuSlMGTD_-26" style="edgeStyle=orthogonalEdgeStyle;rounded=0;orthogonalLoop=1;jettySize=auto;html=1;endArrow=halfCircle;endFill=0;exitX=0;exitY=0.5;exitDx=0;exitDy=0;" parent="1" source="yRdWReoldbdWuSlMGTD_-95" edge="1">
          <mxGeometry width="201" relative="1" as="geometry">
            <mxPoint x="120" y="-318" as="targetPoint" />
          </mxGeometry>
        </mxCell>
        <mxCell id="yRdWReoldbdWuSlMGTD_-93" value="record&amp;nbsp;" style="edgeLabel;html=1;align=center;verticalAlign=middle;resizable=0;points=[];" parent="yRdWReoldbdWuSlMGTD_-26" vertex="1" connectable="0">
          <mxGeometry x="0.9716" y="-4" relative="1" as="geometry">
            <mxPoint x="9" y="-18" as="offset" />
          </mxGeometry>
        </mxCell>
        <mxCell id="yRdWReoldbdWuSlMGTD_-95" value="" style="whiteSpace=wrap;html=1;aspect=fixed;" parent="yRdWReoldbdWuSlMGTD_-26" vertex="1">
          <mxGeometry x="186" y="-325.62" width="15" height="15" as="geometry" />
        </mxCell>
        <mxCell id="yRdWReoldbdWuSlMGTD_-50" style="edgeStyle=orthogonalEdgeStyle;rounded=0;orthogonalLoop=1;jettySize=auto;html=1;endArrow=circle;endFill=0;" parent="1" source="yRdWReoldbdWuSlMGTD_-21" edge="1">
          <mxGeometry relative="1" as="geometry">
            <mxPoint x="480" y="-110" as="targetPoint" />
          </mxGeometry>
        </mxCell>
        <mxCell id="yRdWReoldbdWuSlMGTD_-115" style="edgeStyle=orthogonalEdgeStyle;rounded=0;orthogonalLoop=1;jettySize=auto;html=1;endArrow=circle;endFill=0;" parent="1" source="yRdWReoldbdWuSlMGTD_-21" edge="1">
          <mxGeometry relative="1" as="geometry">
            <mxPoint x="820" y="-295" as="targetPoint" />
          </mxGeometry>
        </mxCell>
        <mxCell id="yRdWReoldbdWuSlMGTD_-116" value="sendFrame" style="edgeLabel;html=1;align=center;verticalAlign=middle;resizable=0;points=[];" parent="yRdWReoldbdWuSlMGTD_-115" vertex="1" connectable="0">
          <mxGeometry x="0.5908" y="2" relative="1" as="geometry">
            <mxPoint x="2" y="-14" as="offset" />
          </mxGeometry>
        </mxCell>
        <mxCell id="yRdWReoldbdWuSlMGTD_-21" value="&lt;div style=&quot;&quot;&gt;&lt;br&gt;&lt;/div&gt;" style="html=1;dropTarget=0;whiteSpace=wrap;align=left;" parent="1" vertex="1">
          <mxGeometry x="200" y="-410" width="560" height="230" as="geometry" />
        </mxCell>
        <mxCell id="yRdWReoldbdWuSlMGTD_-22" value="" style="shape=module;jettyWidth=8;jettyHeight=4;" parent="yRdWReoldbdWuSlMGTD_-21" vertex="1">
          <mxGeometry x="1" width="23" height="20" relative="1" as="geometry">
            <mxPoint x="-27" y="7" as="offset" />
          </mxGeometry>
        </mxCell>
        <mxCell id="yRdWReoldbdWuSlMGTD_-23" value="&amp;lt;&amp;lt;component&amp;gt;&amp;gt;&lt;br&gt;&lt;b&gt;RTSP_H264Recorder&lt;/b&gt;" style="text;strokeColor=none;align=center;fillColor=none;html=1;verticalAlign=middle;whiteSpace=wrap;rounded=0;" parent="1" vertex="1">
          <mxGeometry x="414" y="-400" width="127.04" height="30" as="geometry" />
        </mxCell>
        <mxCell id="yRdWReoldbdWuSlMGTD_-72" value="&lt;div style=&quot;&quot;&gt;&lt;span style=&quot;font-size: 11px; background-color: initial;&quot;&gt;&amp;lt;&amp;lt;component&amp;gt;&amp;gt;&lt;/span&gt;&lt;/div&gt;&lt;b style=&quot;font-size: 11px;&quot;&gt;&lt;div style=&quot;&quot;&gt;&lt;b style=&quot;background-color: initial;&quot;&gt;mpegtsMuxer&lt;/b&gt;&lt;/div&gt;&lt;/b&gt;" style="html=1;dropTarget=0;whiteSpace=wrap;align=center;" parent="1" vertex="1">
          <mxGeometry x="586" y="-359.84000000000003" width="150" height="65.69" as="geometry" />
        </mxCell>
        <mxCell id="yRdWReoldbdWuSlMGTD_-73" value="" style="shape=module;jettyWidth=8;jettyHeight=4;" parent="yRdWReoldbdWuSlMGTD_-72" vertex="1">
          <mxGeometry x="1" width="23" height="20" relative="1" as="geometry">
            <mxPoint x="-27" y="7" as="offset" />
          </mxGeometry>
        </mxCell>
        <mxCell id="yRdWReoldbdWuSlMGTD_-79" value="&lt;div style=&quot;&quot;&gt;&lt;span style=&quot;font-size: 11px; background-color: initial;&quot;&gt;&amp;lt;&amp;lt;component&amp;gt;&amp;gt;&lt;/span&gt;&lt;/div&gt;&lt;b style=&quot;font-size: 11px;&quot;&gt;&lt;div style=&quot;&quot;&gt;&lt;b style=&quot;background-color: initial;&quot;&gt;frameDec&lt;/b&gt;&lt;/div&gt;&lt;/b&gt;" style="html=1;dropTarget=0;whiteSpace=wrap;align=center;" parent="1" vertex="1">
          <mxGeometry x="586" y="-280.06" width="150" height="65.69" as="geometry" />
        </mxCell>
        <mxCell id="yRdWReoldbdWuSlMGTD_-80" value="" style="shape=module;jettyWidth=8;jettyHeight=4;" parent="yRdWReoldbdWuSlMGTD_-79" vertex="1">
          <mxGeometry x="1" width="23" height="20" relative="1" as="geometry">
            <mxPoint x="-27" y="7" as="offset" />
          </mxGeometry>
        </mxCell>
        <mxCell id="yRdWReoldbdWuSlMGTD_-104" style="edgeStyle=orthogonalEdgeStyle;rounded=0;orthogonalLoop=1;jettySize=auto;html=1;endArrow=none;endFill=0;exitX=1.006;exitY=0.397;exitDx=0;exitDy=0;exitPerimeter=0;" parent="1" source="yRdWReoldbdWuSlMGTD_-88" target="yRdWReoldbdWuSlMGTD_-102" edge="1">
          <mxGeometry relative="1" as="geometry" />
        </mxCell>
        <mxCell id="yRdWReoldbdWuSlMGTD_-113" style="edgeStyle=orthogonalEdgeStyle;rounded=0;orthogonalLoop=1;jettySize=auto;html=1;endArrow=none;endFill=0;" parent="1" source="yRdWReoldbdWuSlMGTD_-88" edge="1">
          <mxGeometry relative="1" as="geometry">
            <mxPoint x="199" y="-317.34000000000003" as="targetPoint" />
          </mxGeometry>
        </mxCell>
        <mxCell id="yRdWReoldbdWuSlMGTD_-88" value="&lt;div style=&quot;&quot;&gt;&lt;span style=&quot;font-size: 11px; background-color: initial;&quot;&gt;&amp;lt;&amp;lt;component&amp;gt;&amp;gt;&lt;/span&gt;&lt;/div&gt;&lt;b style=&quot;font-size: 11px;&quot;&gt;&lt;div style=&quot;&quot;&gt;&lt;b style=&quot;background-color: initial;&quot;&gt;RTSPClient&lt;/b&gt;&lt;/div&gt;&lt;/b&gt;" style="html=1;dropTarget=0;whiteSpace=wrap;align=center;" parent="1" vertex="1">
          <mxGeometry x="250" y="-364.84000000000003" width="150" height="95" as="geometry" />
        </mxCell>
        <mxCell id="yRdWReoldbdWuSlMGTD_-89" value="" style="shape=module;jettyWidth=8;jettyHeight=4;" parent="yRdWReoldbdWuSlMGTD_-88" vertex="1">
          <mxGeometry x="1" width="23" height="20" relative="1" as="geometry">
            <mxPoint x="-27" y="7" as="offset" />
          </mxGeometry>
        </mxCell>
        <mxCell id="yRdWReoldbdWuSlMGTD_-105" style="edgeStyle=orthogonalEdgeStyle;rounded=0;orthogonalLoop=1;jettySize=auto;html=1;endArrow=none;endFill=0;" parent="1" source="yRdWReoldbdWuSlMGTD_-102" target="yRdWReoldbdWuSlMGTD_-72" edge="1">
          <mxGeometry relative="1" as="geometry" />
        </mxCell>
        <mxCell id="yRdWReoldbdWuSlMGTD_-102" value="" style="shape=providedRequiredInterface;html=1;verticalLabelPosition=bottom;sketch=0;rotation=-180;" parent="1" vertex="1">
          <mxGeometry x="492" y="-337" width="20" height="20" as="geometry" />
        </mxCell>
        <mxCell id="yRdWReoldbdWuSlMGTD_-106" value="encode" style="text;strokeColor=none;align=center;fillColor=none;html=1;verticalAlign=middle;whiteSpace=wrap;rounded=0;" parent="1" vertex="1">
          <mxGeometry x="472" y="-367" width="60" height="30" as="geometry" />
        </mxCell>
        <mxCell id="yRdWReoldbdWuSlMGTD_-108" value="" style="shape=providedRequiredInterface;html=1;verticalLabelPosition=bottom;sketch=0;rotation=-180;" parent="1" vertex="1">
          <mxGeometry x="493" y="-289.84000000000003" width="20" height="20" as="geometry" />
        </mxCell>
        <mxCell id="yRdWReoldbdWuSlMGTD_-109" style="edgeStyle=orthogonalEdgeStyle;rounded=0;orthogonalLoop=1;jettySize=auto;html=1;entryX=0;entryY=0.5;entryDx=0;entryDy=0;entryPerimeter=0;endArrow=none;endFill=0;" parent="1" source="yRdWReoldbdWuSlMGTD_-79" target="yRdWReoldbdWuSlMGTD_-108" edge="1">
          <mxGeometry relative="1" as="geometry" />
        </mxCell>
        <mxCell id="yRdWReoldbdWuSlMGTD_-111" style="edgeStyle=orthogonalEdgeStyle;rounded=0;orthogonalLoop=1;jettySize=auto;html=1;entryX=1.003;entryY=0.89;entryDx=0;entryDy=0;entryPerimeter=0;endArrow=none;endFill=0;" parent="1" source="yRdWReoldbdWuSlMGTD_-108" target="yRdWReoldbdWuSlMGTD_-88" edge="1">
          <mxGeometry relative="1" as="geometry">
            <Array as="points">
              <mxPoint x="401" y="-280" />
            </Array>
          </mxGeometry>
        </mxCell>
        <mxCell id="yRdWReoldbdWuSlMGTD_-112" value="decode" style="text;strokeColor=none;align=center;fillColor=none;html=1;verticalAlign=middle;whiteSpace=wrap;rounded=0;" parent="1" vertex="1">
          <mxGeometry x="476" y="-317.84000000000003" width="60" height="30" as="geometry" />
        </mxCell>
        <mxCell id="IU_M7-wI5nSeHY1QrZLq-9" style="edgeStyle=orthogonalEdgeStyle;rounded=0;orthogonalLoop=1;jettySize=auto;html=1;endArrow=halfCircle;endFill=0;" parent="1" source="IU_M7-wI5nSeHY1QrZLq-1" edge="1">
          <mxGeometry relative="1" as="geometry">
            <mxPoint x="1772" y="190" as="targetPoint" />
          </mxGeometry>
        </mxCell>
        <mxCell id="IU_M7-wI5nSeHY1QrZLq-10" style="edgeStyle=orthogonalEdgeStyle;rounded=0;orthogonalLoop=1;jettySize=auto;html=1;endArrow=halfCircle;endFill=0;" parent="1" source="IU_M7-wI5nSeHY1QrZLq-1" edge="1">
          <mxGeometry relative="1" as="geometry">
            <mxPoint x="1772" y="330" as="targetPoint" />
          </mxGeometry>
        </mxCell>
        <mxCell id="4gnGxFXD07aaPCXMGES7-34" style="edgeStyle=orthogonalEdgeStyle;rounded=0;orthogonalLoop=1;jettySize=auto;html=1;endArrow=halfCircle;endFill=0;" parent="1" source="IU_M7-wI5nSeHY1QrZLq-1" edge="1">
          <mxGeometry relative="1" as="geometry">
            <mxPoint x="1600" y="257.5" as="targetPoint" />
          </mxGeometry>
        </mxCell>
        <mxCell id="IU_M7-wI5nSeHY1QrZLq-1" value="&amp;lt;&amp;lt;component&amp;gt;&amp;gt;&lt;br&gt;&lt;b&gt;Indexer&lt;/b&gt;" style="html=1;dropTarget=0;whiteSpace=wrap;" parent="1" vertex="1">
          <mxGeometry x="1690" y="225" width="164" height="65" as="geometry" />
        </mxCell>
        <mxCell id="IU_M7-wI5nSeHY1QrZLq-2" value="" style="shape=module;jettyWidth=8;jettyHeight=4;" parent="IU_M7-wI5nSeHY1QrZLq-1" vertex="1">
          <mxGeometry x="1" width="23" height="20" relative="1" as="geometry">
            <mxPoint x="-27" y="7" as="offset" />
          </mxGeometry>
        </mxCell>
        <mxCell id="IU_M7-wI5nSeHY1QrZLq-3" value="&amp;lt;&amp;lt;database&amp;gt;&amp;gt;&lt;br&gt;" style="html=1;dropTarget=0;whiteSpace=wrap;" parent="1" vertex="1">
          <mxGeometry x="1970" y="225" width="164" height="65" as="geometry" />
        </mxCell>
        <mxCell id="IU_M7-wI5nSeHY1QrZLq-4" value="" style="shape=module;jettyWidth=8;jettyHeight=4;" parent="IU_M7-wI5nSeHY1QrZLq-3" vertex="1">
          <mxGeometry x="1" width="23" height="20" relative="1" as="geometry">
            <mxPoint x="-27" y="7" as="offset" />
          </mxGeometry>
        </mxCell>
        <mxCell id="IU_M7-wI5nSeHY1QrZLq-7" style="edgeStyle=orthogonalEdgeStyle;rounded=0;orthogonalLoop=1;jettySize=auto;html=1;endArrow=none;endFill=0;" parent="1" source="IU_M7-wI5nSeHY1QrZLq-5" target="IU_M7-wI5nSeHY1QrZLq-1" edge="1">
          <mxGeometry relative="1" as="geometry" />
        </mxCell>
        <mxCell id="IU_M7-wI5nSeHY1QrZLq-8" style="edgeStyle=orthogonalEdgeStyle;rounded=0;orthogonalLoop=1;jettySize=auto;html=1;exitX=0;exitY=0.5;exitDx=0;exitDy=0;exitPerimeter=0;endArrow=none;endFill=0;" parent="1" source="IU_M7-wI5nSeHY1QrZLq-5" target="IU_M7-wI5nSeHY1QrZLq-3" edge="1">
          <mxGeometry relative="1" as="geometry" />
        </mxCell>
        <mxCell id="IU_M7-wI5nSeHY1QrZLq-5" value="" style="shape=providedRequiredInterface;html=1;verticalLabelPosition=bottom;sketch=0;rotation=-180;" parent="1" vertex="1">
          <mxGeometry x="1900" y="247.5" width="20" height="20" as="geometry" />
        </mxCell>
        <mxCell id="IU_M7-wI5nSeHY1QrZLq-11" value="RecordedEvent" style="text;strokeColor=none;align=center;fillColor=none;html=1;verticalAlign=middle;whiteSpace=wrap;rounded=0;" parent="1" vertex="1">
          <mxGeometry x="1790" y="160" width="60" height="30" as="geometry" />
        </mxCell>
        <mxCell id="IU_M7-wI5nSeHY1QrZLq-12" value="RecorgnizedEvent" style="text;strokeColor=none;align=center;fillColor=none;html=1;verticalAlign=middle;whiteSpace=wrap;rounded=0;" parent="1" vertex="1">
          <mxGeometry x="1800" y="310" width="80" height="30" as="geometry" />
        </mxCell>
        <mxCell id="IU_M7-wI5nSeHY1QrZLq-13" value="write&lt;br&gt;operations" style="text;strokeColor=none;align=center;fillColor=none;html=1;verticalAlign=middle;whiteSpace=wrap;rounded=0;" parent="1" vertex="1">
          <mxGeometry x="1880" y="212.5" width="60" height="30" as="geometry" />
        </mxCell>
        <mxCell id="IU_M7-wI5nSeHY1QrZLq-40" style="edgeStyle=orthogonalEdgeStyle;rounded=0;orthogonalLoop=1;jettySize=auto;html=1;endArrow=halfCircle;endFill=0;" parent="1" source="IU_M7-wI5nSeHY1QrZLq-31" edge="1">
          <mxGeometry relative="1" as="geometry">
            <mxPoint x="1880" y="470" as="targetPoint" />
          </mxGeometry>
        </mxCell>
        <mxCell id="IU_M7-wI5nSeHY1QrZLq-45" style="edgeStyle=orthogonalEdgeStyle;rounded=0;orthogonalLoop=1;jettySize=auto;html=1;endArrow=halfCircle;endFill=0;" parent="1" source="IU_M7-wI5nSeHY1QrZLq-31" edge="1">
          <mxGeometry relative="1" as="geometry">
            <mxPoint x="1880" y="700" as="targetPoint" />
          </mxGeometry>
        </mxCell>
        <mxCell id="4gnGxFXD07aaPCXMGES7-31" style="edgeStyle=orthogonalEdgeStyle;rounded=0;orthogonalLoop=1;jettySize=auto;html=1;endArrow=halfCircle;endFill=0;" parent="1" source="IU_M7-wI5nSeHY1QrZLq-31" edge="1">
          <mxGeometry relative="1" as="geometry">
            <mxPoint x="1680" y="585" as="targetPoint" />
          </mxGeometry>
        </mxCell>
        <mxCell id="IU_M7-wI5nSeHY1QrZLq-31" value="a" style="html=1;dropTarget=0;whiteSpace=wrap;" parent="1" vertex="1">
          <mxGeometry x="1740" y="505" width="280" height="160" as="geometry" />
        </mxCell>
        <mxCell id="IU_M7-wI5nSeHY1QrZLq-32" value="" style="shape=module;jettyWidth=8;jettyHeight=4;" parent="IU_M7-wI5nSeHY1QrZLq-31" vertex="1">
          <mxGeometry x="1" width="23" height="20" relative="1" as="geometry">
            <mxPoint x="-27" y="7" as="offset" />
          </mxGeometry>
        </mxCell>
        <mxCell id="IU_M7-wI5nSeHY1QrZLq-37" style="edgeStyle=orthogonalEdgeStyle;rounded=0;orthogonalLoop=1;jettySize=auto;html=1;entryX=0;entryY=0.5;entryDx=0;entryDy=0;endArrow=none;endFill=0;" parent="1" source="IU_M7-wI5nSeHY1QrZLq-29" target="IU_M7-wI5nSeHY1QrZLq-33" edge="1">
          <mxGeometry relative="1" as="geometry" />
        </mxCell>
        <mxCell id="IU_M7-wI5nSeHY1QrZLq-29" value="&amp;lt;&amp;lt;component&amp;gt;&amp;gt;&lt;br&gt;&lt;b&gt;gorm&lt;/b&gt;" style="html=1;dropTarget=0;whiteSpace=wrap;" parent="1" vertex="1">
          <mxGeometry x="1806" y="571" width="164" height="60" as="geometry" />
        </mxCell>
        <mxCell id="IU_M7-wI5nSeHY1QrZLq-30" value="" style="shape=module;jettyWidth=8;jettyHeight=4;" parent="IU_M7-wI5nSeHY1QrZLq-29" vertex="1">
          <mxGeometry x="1" width="23" height="20" relative="1" as="geometry">
            <mxPoint x="-27" y="7" as="offset" />
          </mxGeometry>
        </mxCell>
        <mxCell id="IU_M7-wI5nSeHY1QrZLq-34" style="edgeStyle=orthogonalEdgeStyle;rounded=0;orthogonalLoop=1;jettySize=auto;html=1;exitX=1;exitY=0.5;exitDx=0;exitDy=0;entryX=1.16;entryY=0.511;entryDx=0;entryDy=0;entryPerimeter=0;endArrow=none;endFill=0;" parent="1" source="IU_M7-wI5nSeHY1QrZLq-33" target="IU_M7-wI5nSeHY1QrZLq-35" edge="1">
          <mxGeometry relative="1" as="geometry">
            <mxPoint x="2140" y="600.8333333333335" as="targetPoint" />
          </mxGeometry>
        </mxCell>
        <mxCell id="IU_M7-wI5nSeHY1QrZLq-33" value="" style="whiteSpace=wrap;html=1;aspect=fixed;" parent="1" vertex="1">
          <mxGeometry x="2020" y="588.5" width="25" height="25" as="geometry" />
        </mxCell>
        <mxCell id="IU_M7-wI5nSeHY1QrZLq-35" value="" style="shape=providedRequiredInterface;html=1;verticalLabelPosition=bottom;sketch=0;rotation=-180;" parent="1" vertex="1">
          <mxGeometry x="2090" y="591.5" width="20" height="19" as="geometry" />
        </mxCell>
        <mxCell id="IU_M7-wI5nSeHY1QrZLq-38" value="write operations" style="text;strokeColor=none;align=center;fillColor=none;html=1;verticalAlign=middle;whiteSpace=wrap;rounded=0;" parent="1" vertex="1">
          <mxGeometry x="2068" y="541" width="60" height="30" as="geometry" />
        </mxCell>
        <mxCell id="IU_M7-wI5nSeHY1QrZLq-39" value="&amp;lt;&amp;lt;component&amp;gt;&amp;gt;&lt;br&gt;&lt;b&gt;PostgresIndexer&lt;/b&gt;" style="text;strokeColor=none;align=center;fillColor=none;html=1;verticalAlign=middle;whiteSpace=wrap;rounded=0;" parent="1" vertex="1">
          <mxGeometry x="1850" y="520" width="60" height="30" as="geometry" />
        </mxCell>
        <mxCell id="IU_M7-wI5nSeHY1QrZLq-41" value="RecordedEvent" style="text;strokeColor=none;align=center;fillColor=none;html=1;verticalAlign=middle;whiteSpace=wrap;rounded=0;" parent="1" vertex="1">
          <mxGeometry x="1920" y="450" width="60" height="30" as="geometry" />
        </mxCell>
        <mxCell id="IU_M7-wI5nSeHY1QrZLq-42" value="&amp;lt;&amp;lt;database&amp;gt;&amp;gt;&lt;br&gt;&lt;b&gt;Postgres&lt;/b&gt;" style="html=1;dropTarget=0;whiteSpace=wrap;" parent="1" vertex="1">
          <mxGeometry x="2170" y="568.5" width="164" height="65" as="geometry" />
        </mxCell>
        <mxCell id="IU_M7-wI5nSeHY1QrZLq-43" value="" style="shape=module;jettyWidth=8;jettyHeight=4;" parent="IU_M7-wI5nSeHY1QrZLq-42" vertex="1">
          <mxGeometry x="1" width="23" height="20" relative="1" as="geometry">
            <mxPoint x="-27" y="7" as="offset" />
          </mxGeometry>
        </mxCell>
        <mxCell id="IU_M7-wI5nSeHY1QrZLq-44" style="edgeStyle=orthogonalEdgeStyle;rounded=0;orthogonalLoop=1;jettySize=auto;html=1;entryX=0;entryY=0.5;entryDx=0;entryDy=0;entryPerimeter=0;endArrow=none;endFill=0;" parent="1" source="IU_M7-wI5nSeHY1QrZLq-42" target="IU_M7-wI5nSeHY1QrZLq-35" edge="1">
          <mxGeometry relative="1" as="geometry" />
        </mxCell>
        <mxCell id="IU_M7-wI5nSeHY1QrZLq-46" value="RecorgnizedEvent" style="text;strokeColor=none;align=center;fillColor=none;html=1;verticalAlign=middle;whiteSpace=wrap;rounded=0;" parent="1" vertex="1">
          <mxGeometry x="1920" y="680" width="60" height="30" as="geometry" />
        </mxCell>
        <mxCell id="IU_M7-wI5nSeHY1QrZLq-79" style="edgeStyle=orthogonalEdgeStyle;rounded=0;orthogonalLoop=1;jettySize=auto;html=1;exitX=0.875;exitY=0.5;exitDx=0;exitDy=0;exitPerimeter=0;" parent="1" source="IU_M7-wI5nSeHY1QrZLq-59" target="IU_M7-wI5nSeHY1QrZLq-67" edge="1">
          <mxGeometry relative="1" as="geometry" />
        </mxCell>
        <mxCell id="IU_M7-wI5nSeHY1QrZLq-59" value="Rede" style="ellipse;shape=cloud;whiteSpace=wrap;html=1;" parent="1" vertex="1">
          <mxGeometry x="1464" y="998" width="120" height="80" as="geometry" />
        </mxCell>
        <mxCell id="IU_M7-wI5nSeHY1QrZLq-76" value="" style="group" parent="1" vertex="1" connectable="0">
          <mxGeometry x="1090" y="986" width="334.5" height="255" as="geometry" />
        </mxCell>
        <mxCell id="IU_M7-wI5nSeHY1QrZLq-60" value="" style="rounded=0;whiteSpace=wrap;html=1;" parent="IU_M7-wI5nSeHY1QrZLq-76" vertex="1">
          <mxGeometry width="334.5" height="255" as="geometry" />
        </mxCell>
        <mxCell id="IU_M7-wI5nSeHY1QrZLq-48" value="Dados de mída" style="shape=cylinder3;whiteSpace=wrap;html=1;boundedLbl=1;backgroundOutline=1;size=15;" parent="IU_M7-wI5nSeHY1QrZLq-76" vertex="1">
          <mxGeometry x="45" y="154" width="60" height="75" as="geometry" />
        </mxCell>
        <mxCell id="IU_M7-wI5nSeHY1QrZLq-50" value="Servidor de mídia" style="text;strokeColor=none;align=center;fillColor=none;html=1;verticalAlign=middle;whiteSpace=wrap;rounded=0;" parent="IU_M7-wI5nSeHY1QrZLq-76" vertex="1">
          <mxGeometry x="230" y="189" width="60" height="30" as="geometry" />
        </mxCell>
        <mxCell id="IU_M7-wI5nSeHY1QrZLq-53" value="Buffer" style="rounded=0;whiteSpace=wrap;html=1;" parent="IU_M7-wI5nSeHY1QrZLq-76" vertex="1">
          <mxGeometry x="15" y="24" width="120" height="60" as="geometry" />
        </mxCell>
        <mxCell id="IU_M7-wI5nSeHY1QrZLq-54" style="edgeStyle=orthogonalEdgeStyle;rounded=0;orthogonalLoop=1;jettySize=auto;html=1;entryX=0.5;entryY=1;entryDx=0;entryDy=0;" parent="IU_M7-wI5nSeHY1QrZLq-76" source="IU_M7-wI5nSeHY1QrZLq-48" target="IU_M7-wI5nSeHY1QrZLq-53" edge="1">
          <mxGeometry relative="1" as="geometry" />
        </mxCell>
        <mxCell id="IU_M7-wI5nSeHY1QrZLq-56" value="Interface de Rede" style="rounded=0;whiteSpace=wrap;html=1;" parent="IU_M7-wI5nSeHY1QrZLq-76" vertex="1">
          <mxGeometry x="190" y="24" width="120" height="60" as="geometry" />
        </mxCell>
        <mxCell id="IU_M7-wI5nSeHY1QrZLq-57" style="edgeStyle=orthogonalEdgeStyle;rounded=0;orthogonalLoop=1;jettySize=auto;html=1;entryX=0;entryY=0.5;entryDx=0;entryDy=0;" parent="IU_M7-wI5nSeHY1QrZLq-76" source="IU_M7-wI5nSeHY1QrZLq-53" target="IU_M7-wI5nSeHY1QrZLq-56" edge="1">
          <mxGeometry relative="1" as="geometry" />
        </mxCell>
        <mxCell id="IU_M7-wI5nSeHY1QrZLq-78" style="edgeStyle=orthogonalEdgeStyle;rounded=0;orthogonalLoop=1;jettySize=auto;html=1;entryX=0.124;entryY=0.52;entryDx=0;entryDy=0;entryPerimeter=0;" parent="1" source="IU_M7-wI5nSeHY1QrZLq-56" target="IU_M7-wI5nSeHY1QrZLq-59" edge="1">
          <mxGeometry relative="1" as="geometry" />
        </mxCell>
        <mxCell id="4gnGxFXD07aaPCXMGES7-4" style="edgeStyle=orthogonalEdgeStyle;rounded=0;orthogonalLoop=1;jettySize=auto;html=1;endArrow=circle;endFill=0;" parent="1" source="4gnGxFXD07aaPCXMGES7-1" edge="1">
          <mxGeometry relative="1" as="geometry">
            <mxPoint x="611.5" y="-1070" as="targetPoint" />
          </mxGeometry>
        </mxCell>
        <mxCell id="4gnGxFXD07aaPCXMGES7-35" style="edgeStyle=orthogonalEdgeStyle;rounded=0;orthogonalLoop=1;jettySize=auto;html=1;endArrow=halfCircle;endFill=0;" parent="1" source="4gnGxFXD07aaPCXMGES7-1" edge="1">
          <mxGeometry relative="1" as="geometry">
            <mxPoint x="611.5" y="-920" as="targetPoint" />
          </mxGeometry>
        </mxCell>
        <mxCell id="4gnGxFXD07aaPCXMGES7-1" value="&amp;lt;&amp;lt;component&amp;gt;&amp;gt;&lt;br&gt;&lt;b&gt;Storer&lt;/b&gt;" style="html=1;dropTarget=0;whiteSpace=wrap;" parent="1" vertex="1">
          <mxGeometry x="530" y="-1027" width="163" height="65" as="geometry" />
        </mxCell>
        <mxCell id="4gnGxFXD07aaPCXMGES7-2" value="" style="shape=module;jettyWidth=8;jettyHeight=4;" parent="4gnGxFXD07aaPCXMGES7-1" vertex="1">
          <mxGeometry x="1" width="23" height="20" relative="1" as="geometry">
            <mxPoint x="-27" y="7" as="offset" />
          </mxGeometry>
        </mxCell>
        <mxCell id="4gnGxFXD07aaPCXMGES7-5" value="CleanEvent" style="text;strokeColor=none;align=center;fillColor=none;html=1;verticalAlign=middle;whiteSpace=wrap;rounded=0;" parent="1" vertex="1">
          <mxGeometry x="633" y="-1080" width="60" height="30" as="geometry" />
        </mxCell>
        <mxCell id="4gnGxFXD07aaPCXMGES7-12" value="&amp;lt;&amp;lt;operating system&amp;gt;&amp;gt;&lt;br&gt;&lt;b&gt;OS&lt;/b&gt;" style="html=1;dropTarget=0;whiteSpace=wrap;" parent="1" vertex="1">
          <mxGeometry x="791" y="-796.5" width="190" height="65" as="geometry" />
        </mxCell>
        <mxCell id="4gnGxFXD07aaPCXMGES7-13" value="" style="shape=module;jettyWidth=8;jettyHeight=4;" parent="4gnGxFXD07aaPCXMGES7-12" vertex="1">
          <mxGeometry x="1" width="23" height="20" relative="1" as="geometry">
            <mxPoint x="-27" y="7" as="offset" />
          </mxGeometry>
        </mxCell>
        <mxCell id="4gnGxFXD07aaPCXMGES7-19" style="edgeStyle=orthogonalEdgeStyle;rounded=0;orthogonalLoop=1;jettySize=auto;html=1;endArrow=circle;endFill=0;" parent="1" source="4gnGxFXD07aaPCXMGES7-20" edge="1">
          <mxGeometry relative="1" as="geometry">
            <mxPoint x="585.5" y="-840" as="targetPoint" />
          </mxGeometry>
        </mxCell>
        <mxCell id="4gnGxFXD07aaPCXMGES7-28" style="edgeStyle=orthogonalEdgeStyle;rounded=0;orthogonalLoop=1;jettySize=auto;html=1;endArrow=circle;endFill=0;" parent="1" source="4gnGxFXD07aaPCXMGES7-20" edge="1">
          <mxGeometry relative="1" as="geometry">
            <mxPoint x="585.5000000000002" y="-680" as="targetPoint" />
          </mxGeometry>
        </mxCell>
        <mxCell id="4gnGxFXD07aaPCXMGES7-20" value="&amp;lt;&amp;lt;component&amp;gt;&amp;gt;&lt;br&gt;&lt;b&gt;Storer&lt;/b&gt;" style="html=1;dropTarget=0;whiteSpace=wrap;" parent="1" vertex="1">
          <mxGeometry x="504" y="-797" width="163" height="65" as="geometry" />
        </mxCell>
        <mxCell id="4gnGxFXD07aaPCXMGES7-21" value="" style="shape=module;jettyWidth=8;jettyHeight=4;" parent="4gnGxFXD07aaPCXMGES7-20" vertex="1">
          <mxGeometry x="1" width="23" height="20" relative="1" as="geometry">
            <mxPoint x="-27" y="7" as="offset" />
          </mxGeometry>
        </mxCell>
        <mxCell id="4gnGxFXD07aaPCXMGES7-22" value="CleanEvent" style="text;strokeColor=none;align=center;fillColor=none;html=1;verticalAlign=middle;whiteSpace=wrap;rounded=0;" parent="1" vertex="1">
          <mxGeometry x="607" y="-850" width="60" height="30" as="geometry" />
        </mxCell>
        <mxCell id="4gnGxFXD07aaPCXMGES7-26" style="edgeStyle=orthogonalEdgeStyle;rounded=0;orthogonalLoop=1;jettySize=auto;html=1;exitX=1;exitY=0.5;exitDx=0;exitDy=0;exitPerimeter=0;entryX=1;entryY=0.5;entryDx=0;entryDy=0;endArrow=none;endFill=0;" parent="1" source="4gnGxFXD07aaPCXMGES7-23" target="4gnGxFXD07aaPCXMGES7-20" edge="1">
          <mxGeometry relative="1" as="geometry" />
        </mxCell>
        <mxCell id="4gnGxFXD07aaPCXMGES7-23" value="" style="shape=providedRequiredInterface;html=1;verticalLabelPosition=bottom;sketch=0;rotation=-180;" parent="1" vertex="1">
          <mxGeometry x="714" y="-774" width="20" height="20" as="geometry" />
        </mxCell>
        <mxCell id="4gnGxFXD07aaPCXMGES7-25" style="edgeStyle=orthogonalEdgeStyle;rounded=0;orthogonalLoop=1;jettySize=auto;html=1;entryX=0;entryY=0.5;entryDx=0;entryDy=0;entryPerimeter=0;endArrow=none;endFill=0;" parent="1" source="4gnGxFXD07aaPCXMGES7-12" target="4gnGxFXD07aaPCXMGES7-23" edge="1">
          <mxGeometry relative="1" as="geometry" />
        </mxCell>
        <mxCell id="4gnGxFXD07aaPCXMGES7-27" value="packge os" style="text;strokeColor=none;align=center;fillColor=none;html=1;verticalAlign=middle;whiteSpace=wrap;rounded=0;" parent="1" vertex="1">
          <mxGeometry x="694" y="-810" width="60" height="30" as="geometry" />
        </mxCell>
        <mxCell id="4gnGxFXD07aaPCXMGES7-29" value="OpenFiles" style="text;strokeColor=none;align=center;fillColor=none;html=1;verticalAlign=middle;whiteSpace=wrap;rounded=0;" parent="1" vertex="1">
          <mxGeometry x="602.5" y="-700" width="60" height="30" as="geometry" />
        </mxCell>
        <mxCell id="4gnGxFXD07aaPCXMGES7-32" value="CleanedEvent" style="text;strokeColor=none;align=center;fillColor=none;html=1;verticalAlign=middle;whiteSpace=wrap;rounded=0;" parent="1" vertex="1">
          <mxGeometry x="1654" y="541" width="60" height="30" as="geometry" />
        </mxCell>
        <mxCell id="4gnGxFXD07aaPCXMGES7-33" value="CleanedEvent" style="text;strokeColor=none;align=center;fillColor=none;html=1;verticalAlign=middle;whiteSpace=wrap;rounded=0;" parent="1" vertex="1">
          <mxGeometry x="1584" y="217.5" width="60" height="30" as="geometry" />
        </mxCell>
        <mxCell id="4gnGxFXD07aaPCXMGES7-36" value="OpenFiles" style="text;strokeColor=none;align=center;fillColor=none;html=1;verticalAlign=middle;whiteSpace=wrap;rounded=0;" parent="1" vertex="1">
          <mxGeometry x="643" y="-940" width="60" height="30" as="geometry" />
        </mxCell>
        <mxCell id="QGZ-8efrB175VtxasxC--59" style="edgeStyle=orthogonalEdgeStyle;rounded=0;orthogonalLoop=1;jettySize=auto;html=1;strokeColor=none;endArrow=oval;endFill=0;" parent="1" source="QGZ-8efrB175VtxasxC--41" edge="1">
          <mxGeometry relative="1" as="geometry">
            <mxPoint x="1870" y="-150" as="targetPoint" />
          </mxGeometry>
        </mxCell>
        <mxCell id="QGZ-8efrB175VtxasxC--60" style="edgeStyle=orthogonalEdgeStyle;rounded=0;orthogonalLoop=1;jettySize=auto;html=1;endArrow=circle;endFill=0;" parent="1" source="QGZ-8efrB175VtxasxC--64" edge="1">
          <mxGeometry relative="1" as="geometry">
            <mxPoint x="1870" y="-100" as="targetPoint" />
            <mxPoint x="1869.66" y="-244.37" as="sourcePoint" />
          </mxGeometry>
        </mxCell>
        <mxCell id="QGZ-8efrB175VtxasxC--41" value="" style="html=1;dropTarget=0;whiteSpace=wrap;" parent="1" vertex="1">
          <mxGeometry x="1730" y="-385" width="280" height="215" as="geometry" />
        </mxCell>
        <mxCell id="QGZ-8efrB175VtxasxC--42" value="" style="shape=module;jettyWidth=8;jettyHeight=4;" parent="QGZ-8efrB175VtxasxC--41" vertex="1">
          <mxGeometry x="1" width="23" height="20" relative="1" as="geometry">
            <mxPoint x="-27" y="7" as="offset" />
          </mxGeometry>
        </mxCell>
        <mxCell id="QGZ-8efrB175VtxasxC--43" style="edgeStyle=orthogonalEdgeStyle;rounded=0;orthogonalLoop=1;jettySize=auto;html=1;entryX=0;entryY=0.5;entryDx=0;entryDy=0;endArrow=none;endFill=0;" parent="1" source="QGZ-8efrB175VtxasxC--44" target="QGZ-8efrB175VtxasxC--47" edge="1">
          <mxGeometry relative="1" as="geometry" />
        </mxCell>
        <mxCell id="QGZ-8efrB175VtxasxC--44" value="&amp;lt;&amp;lt;component&amp;gt;&amp;gt;&lt;br&gt;&lt;b&gt;gorm&lt;/b&gt;" style="html=1;dropTarget=0;whiteSpace=wrap;" parent="1" vertex="1">
          <mxGeometry x="1788" y="-339.37" width="164" height="60" as="geometry" />
        </mxCell>
        <mxCell id="QGZ-8efrB175VtxasxC--45" value="" style="shape=module;jettyWidth=8;jettyHeight=4;" parent="QGZ-8efrB175VtxasxC--44" vertex="1">
          <mxGeometry x="1" width="23" height="20" relative="1" as="geometry">
            <mxPoint x="-27" y="7" as="offset" />
          </mxGeometry>
        </mxCell>
        <mxCell id="QGZ-8efrB175VtxasxC--46" style="edgeStyle=orthogonalEdgeStyle;rounded=0;orthogonalLoop=1;jettySize=auto;html=1;exitX=1;exitY=0.5;exitDx=0;exitDy=0;entryX=1.16;entryY=0.511;entryDx=0;entryDy=0;entryPerimeter=0;endArrow=none;endFill=0;" parent="1" source="QGZ-8efrB175VtxasxC--47" target="QGZ-8efrB175VtxasxC--48" edge="1">
          <mxGeometry relative="1" as="geometry">
            <mxPoint x="2130" y="-289.1666666666665" as="targetPoint" />
          </mxGeometry>
        </mxCell>
        <mxCell id="QGZ-8efrB175VtxasxC--47" value="" style="whiteSpace=wrap;html=1;aspect=fixed;" parent="1" vertex="1">
          <mxGeometry x="2010" y="-301.5" width="25" height="25" as="geometry" />
        </mxCell>
        <mxCell id="QGZ-8efrB175VtxasxC--48" value="" style="shape=providedRequiredInterface;html=1;verticalLabelPosition=bottom;sketch=0;rotation=-180;" parent="1" vertex="1">
          <mxGeometry x="2080" y="-298.5" width="20" height="19" as="geometry" />
        </mxCell>
        <mxCell id="QGZ-8efrB175VtxasxC--49" value="read/write operations" style="text;strokeColor=none;align=center;fillColor=none;html=1;verticalAlign=middle;whiteSpace=wrap;rounded=0;" parent="1" vertex="1">
          <mxGeometry x="2058" y="-349" width="60" height="30" as="geometry" />
        </mxCell>
        <mxCell id="QGZ-8efrB175VtxasxC--50" value="&amp;lt;&amp;lt;component&amp;gt;&amp;gt;&lt;br&gt;&lt;b&gt;HtttpAPI&lt;/b&gt;" style="text;strokeColor=none;align=center;fillColor=none;html=1;verticalAlign=middle;whiteSpace=wrap;rounded=0;" parent="1" vertex="1">
          <mxGeometry x="1840" y="-379" width="60" height="30" as="geometry" />
        </mxCell>
        <mxCell id="QGZ-8efrB175VtxasxC--51" value="&amp;lt;&amp;lt;database&amp;gt;&amp;gt;&lt;br&gt;&lt;b&gt;Postgres&lt;/b&gt;" style="html=1;dropTarget=0;whiteSpace=wrap;" parent="1" vertex="1">
          <mxGeometry x="2160" y="-321.5" width="164" height="65" as="geometry" />
        </mxCell>
        <mxCell id="QGZ-8efrB175VtxasxC--52" value="" style="shape=module;jettyWidth=8;jettyHeight=4;" parent="QGZ-8efrB175VtxasxC--51" vertex="1">
          <mxGeometry x="1" width="23" height="20" relative="1" as="geometry">
            <mxPoint x="-27" y="7" as="offset" />
          </mxGeometry>
        </mxCell>
        <mxCell id="QGZ-8efrB175VtxasxC--53" style="edgeStyle=orthogonalEdgeStyle;rounded=0;orthogonalLoop=1;jettySize=auto;html=1;entryX=0;entryY=0.5;entryDx=0;entryDy=0;entryPerimeter=0;endArrow=none;endFill=0;" parent="1" source="QGZ-8efrB175VtxasxC--51" target="QGZ-8efrB175VtxasxC--48" edge="1">
          <mxGeometry relative="1" as="geometry" />
        </mxCell>
        <mxCell id="QGZ-8efrB175VtxasxC--61" value="Interface HTTP" style="text;strokeColor=none;align=center;fillColor=none;html=1;verticalAlign=middle;whiteSpace=wrap;rounded=0;" parent="1" vertex="1">
          <mxGeometry x="1899" y="-130" width="102" height="30" as="geometry" />
        </mxCell>
        <mxCell id="QGZ-8efrB175VtxasxC--67" style="edgeStyle=orthogonalEdgeStyle;rounded=0;orthogonalLoop=1;jettySize=auto;html=1;entryX=0.5;entryY=0;entryDx=0;entryDy=0;endArrow=none;endFill=0;" parent="1" source="QGZ-8efrB175VtxasxC--62" target="QGZ-8efrB175VtxasxC--64" edge="1">
          <mxGeometry relative="1" as="geometry" />
        </mxCell>
        <mxCell id="QGZ-8efrB175VtxasxC--62" value="&amp;lt;&amp;lt;component&amp;gt;&amp;gt;&lt;br&gt;&lt;b&gt;gin&lt;/b&gt;" style="html=1;dropTarget=0;whiteSpace=wrap;" parent="1" vertex="1">
          <mxGeometry x="1788" y="-259.37" width="164" height="60" as="geometry" />
        </mxCell>
        <mxCell id="QGZ-8efrB175VtxasxC--63" value="" style="shape=module;jettyWidth=8;jettyHeight=4;" parent="QGZ-8efrB175VtxasxC--62" vertex="1">
          <mxGeometry x="1" width="23" height="20" relative="1" as="geometry">
            <mxPoint x="-27" y="7" as="offset" />
          </mxGeometry>
        </mxCell>
        <mxCell id="QGZ-8efrB175VtxasxC--64" value="" style="whiteSpace=wrap;html=1;aspect=fixed;" parent="1" vertex="1">
          <mxGeometry x="1857.5" y="-170" width="25" height="25" as="geometry" />
        </mxCell>
        <mxCell id="QGZ-8efrB175VtxasxC--68" value="&amp;lt;&amp;lt;component&amp;gt;&amp;gt;&lt;br&gt;&lt;b&gt;Core&lt;/b&gt;" style="html=1;dropTarget=0;whiteSpace=wrap;verticalAlign=top;" parent="1" vertex="1">
          <mxGeometry x="930" y="1710" width="910" height="480" as="geometry" />
        </mxCell>
        <mxCell id="QGZ-8efrB175VtxasxC--69" value="" style="shape=module;jettyWidth=8;jettyHeight=4;" parent="QGZ-8efrB175VtxasxC--68" vertex="1">
          <mxGeometry x="1" width="20" height="20" relative="1" as="geometry">
            <mxPoint x="-27" y="7" as="offset" />
          </mxGeometry>
        </mxCell>
        <mxCell id="QGZ-8efrB175VtxasxC--72" style="edgeStyle=orthogonalEdgeStyle;rounded=0;orthogonalLoop=1;jettySize=auto;html=1;endArrow=halfCircle;endFill=0;" parent="1" source="QGZ-8efrB175VtxasxC--75" edge="1">
          <mxGeometry relative="1" as="geometry">
            <mxPoint x="1398" y="1850" as="targetPoint" />
          </mxGeometry>
        </mxCell>
        <mxCell id="QGZ-8efrB175VtxasxC--73" style="edgeStyle=orthogonalEdgeStyle;rounded=0;orthogonalLoop=1;jettySize=auto;html=1;endArrow=halfCircle;endFill=0;" parent="1" source="QGZ-8efrB175VtxasxC--75" edge="1">
          <mxGeometry relative="1" as="geometry">
            <mxPoint x="1398" y="1990" as="targetPoint" />
          </mxGeometry>
        </mxCell>
        <mxCell id="QGZ-8efrB175VtxasxC--74" style="edgeStyle=orthogonalEdgeStyle;rounded=0;orthogonalLoop=1;jettySize=auto;html=1;endArrow=halfCircle;endFill=0;" parent="1" source="QGZ-8efrB175VtxasxC--75" edge="1">
          <mxGeometry relative="1" as="geometry">
            <mxPoint x="1226" y="1917.5" as="targetPoint" />
          </mxGeometry>
        </mxCell>
        <mxCell id="QGZ-8efrB175VtxasxC--75" value="&amp;lt;&amp;lt;component&amp;gt;&amp;gt;&lt;br&gt;&lt;b&gt;Indexer&lt;/b&gt;" style="html=1;dropTarget=0;whiteSpace=wrap;" parent="1" vertex="1">
          <mxGeometry x="1316" y="1885" width="164" height="65" as="geometry" />
        </mxCell>
        <mxCell id="QGZ-8efrB175VtxasxC--76" value="" style="shape=module;jettyWidth=8;jettyHeight=4;" parent="QGZ-8efrB175VtxasxC--75" vertex="1">
          <mxGeometry x="1" width="23" height="20" relative="1" as="geometry">
            <mxPoint x="-27" y="7" as="offset" />
          </mxGeometry>
        </mxCell>
        <mxCell id="QGZ-8efrB175VtxasxC--77" value="&amp;lt;&amp;lt;database&amp;gt;&amp;gt;&lt;br&gt;" style="html=1;dropTarget=0;whiteSpace=wrap;" parent="1" vertex="1">
          <mxGeometry x="1916" y="1885" width="164" height="65" as="geometry" />
        </mxCell>
        <mxCell id="QGZ-8efrB175VtxasxC--78" value="" style="shape=module;jettyWidth=8;jettyHeight=4;" parent="QGZ-8efrB175VtxasxC--77" vertex="1">
          <mxGeometry x="1" width="23" height="20" relative="1" as="geometry">
            <mxPoint x="-27" y="7" as="offset" />
          </mxGeometry>
        </mxCell>
        <mxCell id="QGZ-8efrB175VtxasxC--79" style="edgeStyle=orthogonalEdgeStyle;rounded=0;orthogonalLoop=1;jettySize=auto;html=1;endArrow=none;endFill=0;" parent="1" source="QGZ-8efrB175VtxasxC--81" target="QGZ-8efrB175VtxasxC--75" edge="1">
          <mxGeometry relative="1" as="geometry" />
        </mxCell>
        <mxCell id="QGZ-8efrB175VtxasxC--80" style="edgeStyle=orthogonalEdgeStyle;rounded=0;orthogonalLoop=1;jettySize=auto;html=1;exitX=0;exitY=0.5;exitDx=0;exitDy=0;exitPerimeter=0;endArrow=none;endFill=0;" parent="1" source="QGZ-8efrB175VtxasxC--81" target="QGZ-8efrB175VtxasxC--77" edge="1">
          <mxGeometry relative="1" as="geometry" />
        </mxCell>
        <mxCell id="QGZ-8efrB175VtxasxC--81" value="" style="shape=providedRequiredInterface;html=1;verticalLabelPosition=bottom;sketch=0;rotation=-180;" parent="1" vertex="1">
          <mxGeometry x="1526" y="1907.5" width="20" height="20" as="geometry" />
        </mxCell>
        <mxCell id="QGZ-8efrB175VtxasxC--82" value="RecordedEvent" style="text;strokeColor=none;align=center;fillColor=none;html=1;verticalAlign=middle;whiteSpace=wrap;rounded=0;" parent="1" vertex="1">
          <mxGeometry x="1437" y="1970" width="60" height="30" as="geometry" />
        </mxCell>
        <mxCell id="QGZ-8efrB175VtxasxC--84" value="write&lt;br&gt;operations" style="text;strokeColor=none;align=center;fillColor=none;html=1;verticalAlign=middle;whiteSpace=wrap;rounded=0;" parent="1" vertex="1">
          <mxGeometry x="1506" y="1872.5" width="60" height="30" as="geometry" />
        </mxCell>
        <mxCell id="QGZ-8efrB175VtxasxC--85" value="CleanedEvent" style="text;strokeColor=none;align=center;fillColor=none;html=1;verticalAlign=middle;whiteSpace=wrap;rounded=0;" parent="1" vertex="1">
          <mxGeometry x="1210" y="1877.5" width="60" height="30" as="geometry" />
        </mxCell>
        <mxCell id="QGZ-8efrB175VtxasxC--95" style="edgeStyle=orthogonalEdgeStyle;rounded=0;orthogonalLoop=1;jettySize=auto;html=1;endArrow=circle;endFill=0;" parent="1" source="QGZ-8efrB175VtxasxC--96" edge="1">
          <mxGeometry relative="1" as="geometry">
            <mxPoint x="1557" y="2063.25" as="targetPoint" />
          </mxGeometry>
        </mxCell>
        <mxCell id="QGZ-8efrB175VtxasxC--103" style="edgeStyle=orthogonalEdgeStyle;rounded=0;orthogonalLoop=1;jettySize=auto;html=1;endArrow=circle;endFill=0;" parent="1" source="QGZ-8efrB175VtxasxC--96" edge="1">
          <mxGeometry relative="1" as="geometry">
            <mxPoint x="1398.5" y="1987" as="targetPoint" />
          </mxGeometry>
        </mxCell>
        <mxCell id="QGZ-8efrB175VtxasxC--96" value="&amp;lt;&amp;lt;component&amp;gt;&amp;gt;&lt;br&gt;&lt;b&gt;Recorder&lt;/b&gt;" style="html=1;dropTarget=0;whiteSpace=wrap;" parent="1" vertex="1">
          <mxGeometry x="1317" y="2030.75" width="163" height="65" as="geometry" />
        </mxCell>
        <mxCell id="QGZ-8efrB175VtxasxC--97" value="" style="shape=module;jettyWidth=8;jettyHeight=4;" parent="QGZ-8efrB175VtxasxC--96" vertex="1">
          <mxGeometry x="1" width="23" height="20" relative="1" as="geometry">
            <mxPoint x="-27" y="7" as="offset" />
          </mxGeometry>
        </mxCell>
        <mxCell id="QGZ-8efrB175VtxasxC--99" value="sendFrame" style="text;html=1;align=center;verticalAlign=middle;resizable=0;points=[];autosize=1;strokeColor=none;fillColor=none;" parent="1" vertex="1">
          <mxGeometry x="1517" y="2017" width="80" height="30" as="geometry" />
        </mxCell>
        <mxCell id="QGZ-8efrB175VtxasxC--104" value="RecorgnizedEvent" style="text;strokeColor=none;align=center;fillColor=none;html=1;verticalAlign=middle;whiteSpace=wrap;rounded=0;" parent="1" vertex="1">
          <mxGeometry x="1424.5" y="1810" width="80" height="30" as="geometry" />
        </mxCell>
        <mxCell id="QGZ-8efrB175VtxasxC--105" value="o" style="edgeStyle=none;orthogonalLoop=1;jettySize=auto;html=1;rounded=0;" parent="1" edge="1">
          <mxGeometry width="80" relative="1" as="geometry">
            <mxPoint x="1530" y="570" as="sourcePoint" />
            <mxPoint x="1610" y="570" as="targetPoint" />
            <Array as="points" />
          </mxGeometry>
        </mxCell>
        <mxCell id="QGZ-8efrB175VtxasxC--106" style="edgeStyle=orthogonalEdgeStyle;rounded=0;orthogonalLoop=1;jettySize=auto;html=1;endArrow=circle;endFill=0;" parent="1" source="QGZ-8efrB175VtxasxC--108" edge="1">
          <mxGeometry relative="1" as="geometry">
            <mxPoint x="998.5" y="-1069.5" as="targetPoint" />
          </mxGeometry>
        </mxCell>
        <mxCell id="QGZ-8efrB175VtxasxC--107" style="edgeStyle=orthogonalEdgeStyle;rounded=0;orthogonalLoop=1;jettySize=auto;html=1;endArrow=halfCircle;endFill=0;" parent="1" source="QGZ-8efrB175VtxasxC--108" edge="1">
          <mxGeometry relative="1" as="geometry">
            <mxPoint x="998.5" y="-919.5" as="targetPoint" />
          </mxGeometry>
        </mxCell>
        <mxCell id="QGZ-8efrB175VtxasxC--108" value="&amp;lt;&amp;lt;component&amp;gt;&amp;gt;&lt;br&gt;&lt;b&gt;Recognizer&lt;/b&gt;" style="html=1;dropTarget=0;whiteSpace=wrap;" parent="1" vertex="1">
          <mxGeometry x="917" y="-1026.5" width="163" height="65" as="geometry" />
        </mxCell>
        <mxCell id="QGZ-8efrB175VtxasxC--109" value="" style="shape=module;jettyWidth=8;jettyHeight=4;" parent="QGZ-8efrB175VtxasxC--108" vertex="1">
          <mxGeometry x="1" width="23" height="20" relative="1" as="geometry">
            <mxPoint x="-27" y="7" as="offset" />
          </mxGeometry>
        </mxCell>
        <mxCell id="QGZ-8efrB175VtxasxC--110" value="RecognizedEvent" style="text;strokeColor=none;align=center;fillColor=none;html=1;verticalAlign=middle;whiteSpace=wrap;rounded=0;" parent="1" vertex="1">
          <mxGeometry x="1020" y="-1079.5" width="60" height="30" as="geometry" />
        </mxCell>
        <mxCell id="QGZ-8efrB175VtxasxC--111" value="frame reader" style="text;strokeColor=none;align=center;fillColor=none;html=1;verticalAlign=middle;whiteSpace=wrap;rounded=0;" parent="1" vertex="1">
          <mxGeometry x="1030" y="-939.5" width="60" height="30" as="geometry" />
        </mxCell>
        <mxCell id="QGZ-8efrB175VtxasxC--118" style="edgeStyle=orthogonalEdgeStyle;rounded=0;orthogonalLoop=1;jettySize=auto;html=1;endArrow=halfCircle;endFill=0;" parent="1" source="QGZ-8efrB175VtxasxC--114" edge="1">
          <mxGeometry relative="1" as="geometry">
            <mxPoint x="1560" y="2063" as="targetPoint" />
          </mxGeometry>
        </mxCell>
        <mxCell id="QGZ-8efrB175VtxasxC--119" style="edgeStyle=orthogonalEdgeStyle;rounded=0;orthogonalLoop=1;jettySize=auto;html=1;endArrow=circle;endFill=0;" parent="1" source="QGZ-8efrB175VtxasxC--114" edge="1">
          <mxGeometry relative="1" as="geometry">
            <mxPoint x="1399" y="1848" as="targetPoint" />
            <Array as="points">
              <mxPoint x="1725" y="1906" />
              <mxPoint x="1725" y="1780" />
              <mxPoint x="1400" y="1780" />
            </Array>
          </mxGeometry>
        </mxCell>
        <mxCell id="QGZ-8efrB175VtxasxC--114" value="&amp;lt;&amp;lt;component&amp;gt;&amp;gt;&lt;br&gt;&lt;b&gt;Recognizer&lt;/b&gt;" style="html=1;dropTarget=0;whiteSpace=wrap;" parent="1" vertex="1">
          <mxGeometry x="1643" y="2030.75" width="163" height="65" as="geometry" />
        </mxCell>
        <mxCell id="QGZ-8efrB175VtxasxC--115" value="" style="shape=module;jettyWidth=8;jettyHeight=4;" parent="QGZ-8efrB175VtxasxC--114" vertex="1">
          <mxGeometry x="1" width="23" height="20" relative="1" as="geometry">
            <mxPoint x="-27" y="7" as="offset" />
          </mxGeometry>
        </mxCell>
        <mxCell id="QGZ-8efrB175VtxasxC--117" value="frame reader" style="text;strokeColor=none;align=center;fillColor=none;html=1;verticalAlign=middle;whiteSpace=wrap;rounded=0;" parent="1" vertex="1">
          <mxGeometry x="1526" y="2090" width="60" height="30" as="geometry" />
        </mxCell>
        <mxCell id="QGZ-8efrB175VtxasxC--127" style="edgeStyle=orthogonalEdgeStyle;rounded=0;orthogonalLoop=1;jettySize=auto;html=1;endArrow=circle;endFill=0;" parent="1" source="QGZ-8efrB175VtxasxC--123" edge="1">
          <mxGeometry relative="1" as="geometry">
            <mxPoint x="1220" y="1918" as="targetPoint" />
          </mxGeometry>
        </mxCell>
        <mxCell id="QGZ-8efrB175VtxasxC--133" style="edgeStyle=orthogonalEdgeStyle;rounded=0;orthogonalLoop=1;jettySize=auto;html=1;endArrow=halfCircle;endFill=0;" parent="1" source="QGZ-8efrB175VtxasxC--123" edge="1">
          <mxGeometry relative="1" as="geometry">
            <mxPoint x="1059.4999999999998" y="1990" as="targetPoint" />
          </mxGeometry>
        </mxCell>
        <mxCell id="QGZ-8efrB175VtxasxC--123" value="&amp;lt;&amp;lt;component&amp;gt;&amp;gt;&lt;br&gt;&lt;b&gt;Storer&lt;/b&gt;" style="html=1;dropTarget=0;whiteSpace=wrap;" parent="1" vertex="1">
          <mxGeometry x="978" y="1886" width="163" height="65" as="geometry" />
        </mxCell>
        <mxCell id="QGZ-8efrB175VtxasxC--124" value="" style="shape=module;jettyWidth=8;jettyHeight=4;" parent="QGZ-8efrB175VtxasxC--123" vertex="1">
          <mxGeometry x="1" width="23" height="20" relative="1" as="geometry">
            <mxPoint x="-27" y="7" as="offset" />
          </mxGeometry>
        </mxCell>
        <mxCell id="QGZ-8efrB175VtxasxC--126" value="OpenFiles" style="text;strokeColor=none;align=center;fillColor=none;html=1;verticalAlign=middle;whiteSpace=wrap;rounded=0;" parent="1" vertex="1">
          <mxGeometry x="1084" y="1960" width="60" height="30" as="geometry" />
        </mxCell>
        <mxCell id="QGZ-8efrB175VtxasxC--147" style="edgeStyle=orthogonalEdgeStyle;rounded=0;orthogonalLoop=1;jettySize=auto;html=1;endArrow=circle;endFill=0;" parent="1" source="QGZ-8efrB175VtxasxC--134" edge="1">
          <mxGeometry relative="1" as="geometry">
            <mxPoint x="1994" y="2200" as="targetPoint" />
          </mxGeometry>
        </mxCell>
        <mxCell id="QGZ-8efrB175VtxasxC--134" value="&amp;lt;&amp;lt;component&amp;gt;&amp;gt;&lt;br&gt;&lt;b&gt;HtttpAPI&lt;/b&gt;" style="html=1;dropTarget=0;whiteSpace=wrap;" parent="1" vertex="1">
          <mxGeometry x="1899" y="2075" width="190" height="65" as="geometry" />
        </mxCell>
        <mxCell id="QGZ-8efrB175VtxasxC--135" value="" style="shape=module;jettyWidth=8;jettyHeight=4;" parent="QGZ-8efrB175VtxasxC--134" vertex="1">
          <mxGeometry x="1" width="23" height="20" relative="1" as="geometry">
            <mxPoint x="-27" y="7" as="offset" />
          </mxGeometry>
        </mxCell>
        <mxCell id="QGZ-8efrB175VtxasxC--136" value="" style="shape=providedRequiredInterface;html=1;verticalLabelPosition=bottom;sketch=0;rotation=90;" parent="1" vertex="1">
          <mxGeometry x="1991" y="1990" width="20" height="20" as="geometry" />
        </mxCell>
        <mxCell id="QGZ-8efrB175VtxasxC--140" style="edgeStyle=orthogonalEdgeStyle;rounded=0;orthogonalLoop=1;jettySize=auto;html=1;entryX=0.523;entryY=1.005;entryDx=0;entryDy=0;entryPerimeter=0;endArrow=none;endFill=0;" parent="1" source="QGZ-8efrB175VtxasxC--136" target="QGZ-8efrB175VtxasxC--77" edge="1">
          <mxGeometry relative="1" as="geometry" />
        </mxCell>
        <mxCell id="QGZ-8efrB175VtxasxC--141" style="edgeStyle=orthogonalEdgeStyle;rounded=0;orthogonalLoop=1;jettySize=auto;html=1;entryX=0.538;entryY=-0.065;entryDx=0;entryDy=0;entryPerimeter=0;endArrow=none;endFill=0;" parent="1" source="QGZ-8efrB175VtxasxC--136" target="QGZ-8efrB175VtxasxC--134" edge="1">
          <mxGeometry relative="1" as="geometry" />
        </mxCell>
        <mxCell id="QGZ-8efrB175VtxasxC--143" value="Interface HTTP" style="text;strokeColor=none;align=center;fillColor=none;html=1;verticalAlign=middle;whiteSpace=wrap;rounded=0;" parent="1" vertex="1">
          <mxGeometry x="2021.75" y="2180" width="102" height="30" as="geometry" />
        </mxCell>
        <mxCell id="QGZ-8efrB175VtxasxC--149" value="&amp;lt;&amp;lt;application&amp;gt;&amp;gt;&lt;br&gt;&lt;b&gt;MediaMTX&lt;/b&gt;" style="html=1;dropTarget=0;whiteSpace=wrap;" parent="1" vertex="1">
          <mxGeometry x="1316.5" y="2290" width="163" height="65" as="geometry" />
        </mxCell>
        <mxCell id="QGZ-8efrB175VtxasxC--150" value="" style="shape=module;jettyWidth=8;jettyHeight=4;" parent="QGZ-8efrB175VtxasxC--149" vertex="1">
          <mxGeometry x="1" width="23" height="20" relative="1" as="geometry">
            <mxPoint x="-27" y="7" as="offset" />
          </mxGeometry>
        </mxCell>
        <mxCell id="cN8J6MTpUF228UT4PBhH-1" value="&amp;lt;&amp;lt;component&amp;gt;&amp;gt;&lt;br&gt;&lt;b&gt;HtttpAPI&lt;/b&gt;" style="html=1;dropTarget=0;whiteSpace=wrap;" parent="1" vertex="1">
          <mxGeometry x="1120" y="3760" width="200" height="80" as="geometry" />
        </mxCell>
        <mxCell id="cN8J6MTpUF228UT4PBhH-2" value="" style="shape=module;jettyWidth=8;jettyHeight=4;" parent="cN8J6MTpUF228UT4PBhH-1" vertex="1">
          <mxGeometry x="1" width="23" height="20" relative="1" as="geometry">
            <mxPoint x="-27" y="7" as="offset" />
          </mxGeometry>
        </mxCell>
        <mxCell id="cN8J6MTpUF228UT4PBhH-3" value="&amp;lt;&amp;lt;database&amp;gt;&amp;gt;&lt;br&gt;" style="html=1;dropTarget=0;whiteSpace=wrap;" parent="1" vertex="1">
          <mxGeometry x="1443" y="3760" width="200" height="80" as="geometry" />
        </mxCell>
        <mxCell id="cN8J6MTpUF228UT4PBhH-4" value="" style="shape=module;jettyWidth=8;jettyHeight=4;" parent="cN8J6MTpUF228UT4PBhH-3" vertex="1">
          <mxGeometry x="1" width="23" height="20" relative="1" as="geometry">
            <mxPoint x="-27" y="7" as="offset" />
          </mxGeometry>
        </mxCell>
        <mxCell id="cN8J6MTpUF228UT4PBhH-12" style="edgeStyle=orthogonalEdgeStyle;rounded=0;orthogonalLoop=1;jettySize=auto;html=1;entryX=0;entryY=0.5;entryDx=0;entryDy=0;endArrow=none;endFill=0;" parent="1" source="cN8J6MTpUF228UT4PBhH-5" target="cN8J6MTpUF228UT4PBhH-3" edge="1">
          <mxGeometry relative="1" as="geometry" />
        </mxCell>
        <mxCell id="cN8J6MTpUF228UT4PBhH-5" value="" style="shape=providedRequiredInterface;html=1;verticalLabelPosition=bottom;sketch=0;rotation=-180;" parent="1" vertex="1">
          <mxGeometry x="1360" y="3790" width="20" height="20" as="geometry" />
        </mxCell>
        <mxCell id="cN8J6MTpUF228UT4PBhH-11" style="edgeStyle=orthogonalEdgeStyle;rounded=0;orthogonalLoop=1;jettySize=auto;html=1;entryX=1;entryY=0.5;entryDx=0;entryDy=0;entryPerimeter=0;endArrow=none;endFill=0;" parent="1" source="cN8J6MTpUF228UT4PBhH-1" target="cN8J6MTpUF228UT4PBhH-5" edge="1">
          <mxGeometry relative="1" as="geometry" />
        </mxCell>
        <mxCell id="cN8J6MTpUF228UT4PBhH-13" value="&amp;lt;&amp;lt;component&amp;gt;&amp;gt;&lt;br&gt;&lt;b&gt;Indexer&lt;/b&gt;" style="html=1;dropTarget=0;whiteSpace=wrap;" parent="1" vertex="1">
          <mxGeometry x="1443" y="3590" width="200" height="80" as="geometry" />
        </mxCell>
        <mxCell id="cN8J6MTpUF228UT4PBhH-14" value="" style="shape=module;jettyWidth=8;jettyHeight=4;" parent="cN8J6MTpUF228UT4PBhH-13" vertex="1">
          <mxGeometry x="1" width="23" height="20" relative="1" as="geometry">
            <mxPoint x="-27" y="7" as="offset" />
          </mxGeometry>
        </mxCell>
        <mxCell id="cN8J6MTpUF228UT4PBhH-15" value="" style="shape=providedRequiredInterface;html=1;verticalLabelPosition=bottom;sketch=0;rotation=-90;" parent="1" vertex="1">
          <mxGeometry x="1533" y="3700" width="20" height="20" as="geometry" />
        </mxCell>
        <mxCell id="cN8J6MTpUF228UT4PBhH-18" style="edgeStyle=orthogonalEdgeStyle;rounded=0;orthogonalLoop=1;jettySize=auto;html=1;entryX=1;entryY=0.5;entryDx=0;entryDy=0;entryPerimeter=0;endArrow=none;endFill=0;" parent="1" source="cN8J6MTpUF228UT4PBhH-13" target="cN8J6MTpUF228UT4PBhH-15" edge="1">
          <mxGeometry relative="1" as="geometry" />
        </mxCell>
        <mxCell id="cN8J6MTpUF228UT4PBhH-19" style="edgeStyle=orthogonalEdgeStyle;rounded=0;orthogonalLoop=1;jettySize=auto;html=1;entryX=0;entryY=0.5;entryDx=0;entryDy=0;entryPerimeter=0;endArrow=none;endFill=0;" parent="1" source="cN8J6MTpUF228UT4PBhH-3" target="cN8J6MTpUF228UT4PBhH-15" edge="1">
          <mxGeometry relative="1" as="geometry" />
        </mxCell>
        <mxCell id="cN8J6MTpUF228UT4PBhH-20" value="read operations&lt;div&gt;&lt;br&gt;&lt;/div&gt;" style="text;strokeColor=none;align=center;fillColor=none;html=1;verticalAlign=middle;whiteSpace=wrap;rounded=0;" parent="1" vertex="1">
          <mxGeometry x="1340" y="3750" width="60" height="30" as="geometry" />
        </mxCell>
        <mxCell id="cN8J6MTpUF228UT4PBhH-21" value="write&lt;br&gt;operations" style="text;strokeColor=none;align=center;fillColor=none;html=1;verticalAlign=middle;whiteSpace=wrap;rounded=0;" parent="1" vertex="1">
          <mxGeometry x="1566" y="3695" width="60" height="30" as="geometry" />
        </mxCell>
        <mxCell id="cN8J6MTpUF228UT4PBhH-22" value="&amp;lt;&amp;lt;component&amp;gt;&amp;gt;&lt;br&gt;&lt;b&gt;Recognizer&lt;/b&gt;" style="html=1;dropTarget=0;whiteSpace=wrap;" parent="1" vertex="1">
          <mxGeometry x="1760" y="3590" width="200" height="80" as="geometry" />
        </mxCell>
        <mxCell id="cN8J6MTpUF228UT4PBhH-23" value="" style="shape=module;jettyWidth=8;jettyHeight=4;" parent="cN8J6MTpUF228UT4PBhH-22" vertex="1">
          <mxGeometry x="1" width="23" height="20" relative="1" as="geometry">
            <mxPoint x="-27" y="7" as="offset" />
          </mxGeometry>
        </mxCell>
        <mxCell id="cN8J6MTpUF228UT4PBhH-26" style="edgeStyle=orthogonalEdgeStyle;rounded=0;orthogonalLoop=1;jettySize=auto;html=1;exitX=0;exitY=0.5;exitDx=0;exitDy=0;exitPerimeter=0;entryX=0;entryY=0.5;entryDx=0;entryDy=0;endArrow=none;endFill=0;" parent="1" source="cN8J6MTpUF228UT4PBhH-24" target="cN8J6MTpUF228UT4PBhH-22" edge="1">
          <mxGeometry relative="1" as="geometry" />
        </mxCell>
        <mxCell id="cN8J6MTpUF228UT4PBhH-24" value="" style="shape=providedRequiredInterface;html=1;verticalLabelPosition=bottom;sketch=0;rotation=-180;" parent="1" vertex="1">
          <mxGeometry x="1690" y="3620" width="20" height="20" as="geometry" />
        </mxCell>
        <mxCell id="cN8J6MTpUF228UT4PBhH-25" style="edgeStyle=orthogonalEdgeStyle;rounded=0;orthogonalLoop=1;jettySize=auto;html=1;entryX=1;entryY=0.5;entryDx=0;entryDy=0;entryPerimeter=0;endArrow=none;endFill=0;" parent="1" source="cN8J6MTpUF228UT4PBhH-13" target="cN8J6MTpUF228UT4PBhH-24" edge="1">
          <mxGeometry relative="1" as="geometry" />
        </mxCell>
        <mxCell id="cN8J6MTpUF228UT4PBhH-27" value="RecorgnizedEvent" style="text;strokeColor=none;align=center;fillColor=none;html=1;verticalAlign=middle;whiteSpace=wrap;rounded=0;" parent="1" vertex="1">
          <mxGeometry x="1660" y="3590" width="80" height="30" as="geometry" />
        </mxCell>
        <mxCell id="cN8J6MTpUF228UT4PBhH-28" value="&amp;lt;&amp;lt;component&amp;gt;&amp;gt;&lt;br&gt;&lt;b&gt;Recorder&lt;/b&gt;" style="html=1;dropTarget=0;whiteSpace=wrap;" parent="1" vertex="1">
          <mxGeometry x="1120" y="3590" width="200" height="80" as="geometry" />
        </mxCell>
        <mxCell id="cN8J6MTpUF228UT4PBhH-29" value="" style="shape=module;jettyWidth=8;jettyHeight=4;" parent="cN8J6MTpUF228UT4PBhH-28" vertex="1">
          <mxGeometry x="1" width="23" height="20" relative="1" as="geometry">
            <mxPoint x="-27" y="7" as="offset" />
          </mxGeometry>
        </mxCell>
        <mxCell id="cN8J6MTpUF228UT4PBhH-32" style="edgeStyle=orthogonalEdgeStyle;rounded=0;orthogonalLoop=1;jettySize=auto;html=1;entryX=0;entryY=0.5;entryDx=0;entryDy=0;endArrow=none;endFill=0;" parent="1" source="cN8J6MTpUF228UT4PBhH-30" target="cN8J6MTpUF228UT4PBhH-13" edge="1">
          <mxGeometry relative="1" as="geometry" />
        </mxCell>
        <mxCell id="cN8J6MTpUF228UT4PBhH-30" value="" style="shape=providedRequiredInterface;html=1;verticalLabelPosition=bottom;sketch=0;rotation=-180;" parent="1" vertex="1">
          <mxGeometry x="1360" y="3620" width="20" height="20" as="geometry" />
        </mxCell>
        <mxCell id="cN8J6MTpUF228UT4PBhH-31" style="edgeStyle=orthogonalEdgeStyle;rounded=0;orthogonalLoop=1;jettySize=auto;html=1;entryX=1;entryY=0.5;entryDx=0;entryDy=0;entryPerimeter=0;endArrow=none;endFill=0;" parent="1" source="cN8J6MTpUF228UT4PBhH-28" target="cN8J6MTpUF228UT4PBhH-30" edge="1">
          <mxGeometry relative="1" as="geometry" />
        </mxCell>
        <mxCell id="cN8J6MTpUF228UT4PBhH-34" value="&lt;div&gt;RecordedEvent&lt;/div&gt;" style="text;strokeColor=none;align=center;fillColor=none;html=1;verticalAlign=middle;whiteSpace=wrap;rounded=0;" parent="1" vertex="1">
          <mxGeometry x="1345" y="3590" width="60" height="30" as="geometry" />
        </mxCell>
        <mxCell id="cN8J6MTpUF228UT4PBhH-35" value="&amp;lt;&amp;lt;component&amp;gt;&amp;gt;&lt;br&gt;&lt;b&gt;Storer&lt;/b&gt;" style="html=1;dropTarget=0;whiteSpace=wrap;" parent="1" vertex="1">
          <mxGeometry x="1442.5" y="3410" width="200" height="80" as="geometry" />
        </mxCell>
        <mxCell id="cN8J6MTpUF228UT4PBhH-36" value="" style="shape=module;jettyWidth=8;jettyHeight=4;" parent="cN8J6MTpUF228UT4PBhH-35" vertex="1">
          <mxGeometry x="1" width="23" height="20" relative="1" as="geometry">
            <mxPoint x="-27" y="7" as="offset" />
          </mxGeometry>
        </mxCell>
        <mxCell id="cN8J6MTpUF228UT4PBhH-38" value="" style="shape=providedRequiredInterface;html=1;verticalLabelPosition=bottom;sketch=0;rotation=-90;" parent="1" vertex="1">
          <mxGeometry x="1533" y="3530" width="20" height="20" as="geometry" />
        </mxCell>
        <mxCell id="cN8J6MTpUF228UT4PBhH-39" value="CleanedEvent" style="text;strokeColor=none;align=center;fillColor=none;html=1;verticalAlign=middle;whiteSpace=wrap;rounded=0;" parent="1" vertex="1">
          <mxGeometry x="1574" y="3525" width="80" height="30" as="geometry" />
        </mxCell>
        <mxCell id="1p2Yy6iufKeZCg9JcIJk-7" style="edgeStyle=orthogonalEdgeStyle;rounded=0;orthogonalLoop=1;jettySize=auto;html=1;exitX=1;exitY=0.5;exitDx=0;exitDy=0;exitPerimeter=0;entryX=0.5;entryY=1;entryDx=0;entryDy=0;endArrow=none;endFill=0;" edge="1" parent="1" source="1p2Yy6iufKeZCg9JcIJk-3" target="QGZ-8efrB175VtxasxC--96">
          <mxGeometry relative="1" as="geometry" />
        </mxCell>
        <mxCell id="1p2Yy6iufKeZCg9JcIJk-3" value="" style="shape=providedRequiredInterface;html=1;verticalLabelPosition=bottom;sketch=0;rotation=-90;" vertex="1" parent="1">
          <mxGeometry x="1388.5" y="2220" width="20" height="20" as="geometry" />
        </mxCell>
        <mxCell id="1p2Yy6iufKeZCg9JcIJk-6" style="edgeStyle=orthogonalEdgeStyle;rounded=0;orthogonalLoop=1;jettySize=auto;html=1;entryX=0;entryY=0.5;entryDx=0;entryDy=0;entryPerimeter=0;endArrow=none;endFill=0;" edge="1" parent="1" source="QGZ-8efrB175VtxasxC--149" target="1p2Yy6iufKeZCg9JcIJk-3">
          <mxGeometry relative="1" as="geometry" />
        </mxCell>
        <mxCell id="1p2Yy6iufKeZCg9JcIJk-8" value="record" style="text;strokeColor=none;align=center;fillColor=none;html=1;verticalAlign=middle;whiteSpace=wrap;rounded=0;" vertex="1" parent="1">
          <mxGeometry x="1420" y="2215" width="60" height="30" as="geometry" />
        </mxCell>
      </root>
    </mxGraphModel>
  </diagram>
</mxfile>
